<svg width="16" height="16" viewBox="0 0 16 16" fill="none" xmlns="http://www.w3.org/2000/svg">
<path d="M7.99893 3.8125C10.7517 3.8125 12.9833 6.04406 12.9833 8.79688V12.4375C12.9833 12.5701 12.9306 12.6973 12.8369 12.7911C12.7431 12.8848 12.6159 12.9375 12.4833 12.9375H3.51455C3.38194 12.9375 3.25477 12.8848 3.161 12.7911C3.06723 12.6973 3.01455 12.5701 3.01455 12.4375V8.79688C3.01455 6.04406 5.24611 3.8125 7.99893 3.8125ZM7.56143 1.0625H8.43643C8.46958 1.0625 8.50137 1.07567 8.52481 1.09911C8.54826 1.12255 8.56143 1.15435 8.56143 1.1875V2.6875C8.56143 2.72065 8.54826 2.75245 8.52481 2.77589C8.50137 2.79933 8.46958 2.8125 8.43643 2.8125H7.56143C7.52827 2.8125 7.49648 2.79933 7.47304 2.77589C7.4496 2.75245 7.43643 2.72065 7.43643 2.6875V1.1875C7.43643 1.15435 7.4496 1.12255 7.47304 1.09911C7.49648 1.07567 7.52827 1.0625 7.56143 1.0625ZM2.76846 2.99469C2.78007 2.98307 2.79385 2.97385 2.80903 2.96756C2.8242 2.96126 2.84047 2.95803 2.8569 2.95803C2.87332 2.95803 2.88959 2.96126 2.90476 2.96756C2.91994 2.97385 2.93372 2.98307 2.94533 2.99469L4.00596 4.05531C4.02938 4.07875 4.04254 4.11053 4.04254 4.14367C4.04254 4.17681 4.02938 4.20859 4.00596 4.23203L3.38721 4.85078C3.36377 4.87421 3.33199 4.88736 3.29885 4.88736C3.26571 4.88736 3.23393 4.87421 3.21049 4.85078L2.14986 3.79016C2.12644 3.76672 2.11328 3.73493 2.11328 3.7018C2.11328 3.66866 2.12644 3.63688 2.14986 3.61344L2.76861 2.99469H2.76846ZM13.231 2.99469L13.8497 3.61344C13.8731 3.63687 13.8862 3.66862 13.8862 3.70172C13.8862 3.73482 13.8731 3.76657 13.8497 3.79L12.7891 4.85094C12.7775 4.86256 12.7637 4.87178 12.7485 4.87807C12.7333 4.88436 12.7171 4.8876 12.7006 4.8876C12.6842 4.8876 12.668 4.88436 12.6528 4.87807C12.6376 4.87178 12.6238 4.86256 12.6122 4.85094L11.9935 4.23219C11.9818 4.22058 11.9726 4.20679 11.9663 4.19162C11.96 4.17644 11.9568 4.16018 11.9568 4.14375C11.9568 4.12732 11.96 4.11106 11.9663 4.09588C11.9726 4.08071 11.9818 4.06692 11.9935 4.05531L13.0542 2.99469C13.0777 2.97126 13.1095 2.9581 13.1426 2.9581C13.1757 2.9581 13.2075 2.97126 13.231 2.99469ZM2.99893 13.9375H12.9989C13.1315 13.9375 13.2587 13.9902 13.3525 14.0839C13.4462 14.1777 13.4989 14.3049 13.4989 14.4375V14.8125C13.4989 14.8457 13.4858 14.8774 13.4623 14.9009C13.4389 14.9243 13.4071 14.9375 13.3739 14.9375H2.62393C2.59077 14.9375 2.55898 14.9243 2.53554 14.9009C2.5121 14.8774 2.49893 14.8457 2.49893 14.8125V14.4375C2.49893 14.3049 2.5516 14.1777 2.64537 14.0839C2.73914 13.9902 2.86632 13.9375 2.99893 13.9375ZM5.31143 8.98438V12.9375H6.31143V8.98438H5.31143Z" fill="#FFADAD"/>
</svg>
