<svg width="12" height="12" viewBox="0 0 12 12" fill="none" xmlns="http://www.w3.org/2000/svg">
<g clip-path="url(#clip0_3145_2259)">
<path d="M9.75 4.50001C9.52 4.50001 9.313 4.36001 9.2275 4.14601L8.801 3.19051L7.844 2.74201C7.632 2.65251 7.4955 2.44351 7.5 2.21351C7.5045 1.98351 7.6485 1.77951 7.8635 1.69801L8.8375 1.32901L9.2275 0.353512C9.313 0.140012 9.5195 -0.000488281 9.75 -0.000488281C9.9805 -0.000488281 10.187 0.139512 10.2725 0.353512L10.665 1.33501L11.6465 1.72751C11.86 1.81301 12.0005 2.01951 12.0005 2.25001C12.0005 2.48051 11.8605 2.68701 11.6465 2.77251L10.665 3.16501L10.2725 4.14651C10.187 4.36001 9.9805 4.50051 9.75 4.50051V4.50001ZM11.331 5.23651C10.72 5.48901 10.022 5.57401 9.293 5.43051C7.933 5.16251 6.8375 4.06701 6.5695 2.70701C6.426 1.97801 6.5105 1.28001 6.7635 0.669012C6.8955 0.349512 6.6615 1.17188e-05 6.316 1.17188e-05H2.5C1.1195 1.17188e-05 0 1.11951 0 2.50001V9.50001C0 10.8805 1.1195 12 2.5 12H9.5C10.8805 12 12 10.8805 12 9.50001V5.68401C12 5.33851 11.6505 5.10451 11.331 5.23651ZM6.849 9.50001C6.6275 9.50001 6.4335 9.35301 6.373 9.14001L6.0515 8.00001H3.4485L3.127 9.14001C3.067 9.35301 2.8725 9.50001 2.651 9.50001C2.324 9.50001 2.087 9.18801 2.1745 8.87301L3.72 3.31901C3.7905 3.01501 3.9905 2.75901 4.269 2.61651C4.553 2.47051 4.879 2.46151 5.1885 2.59151C5.482 2.71451 5.707 3.00001 5.7905 3.35901L7.326 8.87351C7.4135 9.18851 7.177 9.50051 6.8495 9.50051L6.849 9.50001ZM9.5 9.00001C9.5 9.27601 9.276 9.50001 9 9.50001C8.724 9.50001 8.5 9.27601 8.5 9.00001V6.54401C8.5 6.26801 8.724 6.04401 9 6.04401C9.276 6.04401 9.5 6.26801 9.5 6.54401V9.00001ZM4.695 3.58251L3.7305 7.00001H5.769L4.8045 3.58251C4.79 3.52551 4.709 3.52551 4.695 3.58251Z" fill="#4E3117"/>
</g>
<defs>
<clipPath id="clip0_3145_2259">
<rect width="12" height="12" fill="white"/>
</clipPath>
</defs>
</svg>
