<svg width="80" height="80" viewBox="0 0 80 80" fill="none" xmlns="http://www.w3.org/2000/svg">
<foreignObject x="-40" y="-40" width="160" height="160"><div xmlns="http://www.w3.org/1999/xhtml" style="backdrop-filter:blur(20px);clip-path:url(#bgblur_0_3094_1483_clip_path);height:100%;width:100%"></div></foreignObject><g filter="url(#filter0_iiii_3094_1483)" data-figma-bg-blur-radius="40">
<path d="M0 40C0 17.9086 17.9086 0 40 0C62.0914 0 80 17.9086 80 40C80 62.0914 62.0914 80 40 80C17.9086 80 0 62.0914 0 40Z" fill="#1D1D1D" style="mix-blend-mode:plus-lighter"/>
<path d="M0 40C0 17.9086 17.9086 0 40 0C62.0914 0 80 17.9086 80 40C80 62.0914 62.0914 80 40 80C17.9086 80 0 62.0914 0 40Z" fill="#1D1D1D" fill-opacity="0.2" style="mix-blend-mode:color-burn"/>
<path d="M0 40C0 17.9086 17.9086 0 40 0C62.0914 0 80 17.9086 80 40C80 62.0914 62.0914 80 40 80C17.9086 80 0 62.0914 0 40Z" fill="url(#paint0_linear_3094_1483)" fill-opacity="0.4" style="mix-blend-mode:plus-lighter"/>
<path d="M0 40C0 17.9086 17.9086 0 40 0C62.0914 0 80 17.9086 80 40C80 62.0914 62.0914 80 40 80C17.9086 80 0 62.0914 0 40Z" fill="url(#paint1_linear_3094_1483)" fill-opacity="0.2" style="mix-blend-mode:plus-lighter"/>
</g>
<rect x="3.65922" y="3.66007" width="72.68" height="72.68" rx="36.34" fill="url(#paint2_linear_3094_1483)" stroke="url(#paint3_linear_3094_1483)" stroke-width="0.92"/>
<g filter="url(#filter1_i_3094_1483)">
<rect x="6.87891" y="6.88007" width="66.24" height="66.24" rx="33.12" fill="url(#paint4_linear_3094_1483)"/>
</g>
<rect x="7.33891" y="7.34007" width="65.32" height="65.32" rx="32.66" stroke="url(#paint5_linear_3094_1483)" stroke-width="0.92"/>
<g clip-path="url(#clip1_3094_1483)">
<path d="M40 48.3333C35.4 48.3333 31.6667 44.6 31.6667 40C31.6667 35.4 35.4 31.6667 40 31.6667C44.6 31.6667 48.3333 35.4 48.3333 40C48.3333 44.6 44.6 48.3333 40 48.3333ZM40 35C37.25 35 35 37.25 35 40C35 42.75 37.25 45 40 45C42.75 45 45 42.75 45 40C45 37.25 42.75 35 40 35ZM41.6667 26.6667V21.6667C41.6667 20.75 40.9167 20 40 20C39.0833 20 38.3333 20.75 38.3333 21.6667V26.6667C38.3333 27.5833 39.0833 28.3333 40 28.3333C40.9167 28.3333 41.6667 27.5833 41.6667 26.6667ZM41.6667 58.3333V53.3333C41.6667 52.4167 40.9167 51.6667 40 51.6667C39.0833 51.6667 38.3333 52.4167 38.3333 53.3333V58.3333C38.3333 59.25 39.0833 60 40 60C40.9167 60 41.6667 59.25 41.6667 58.3333ZM28.3333 40C28.3333 39.0833 27.5833 38.3333 26.6667 38.3333H21.6667C20.75 38.3333 20 39.0833 20 40C20 40.9167 20.75 41.6667 21.6667 41.6667H26.6667C27.5833 41.6667 28.3333 40.9167 28.3333 40ZM60 40C60 39.0833 59.25 38.3333 58.3333 38.3333H53.3333C52.4167 38.3333 51.6667 39.0833 51.6667 40C51.6667 40.9167 52.4167 41.6667 53.3333 41.6667H58.3333C59.25 41.6667 60 40.9167 60 40ZM31.1833 31.1833C31.8333 30.5333 31.8333 29.4833 31.1833 28.8333L27.85 25.5C27.2 24.85 26.15 24.85 25.5 25.5C24.85 26.15 24.85 27.2 25.5 27.85L28.8333 31.1833C29.1667 31.5167 29.5833 31.6667 30.0167 31.6667C30.45 31.6667 30.8667 31.5 31.2 31.1833H31.1833ZM54.5167 54.5167C55.1667 53.8667 55.1667 52.8167 54.5167 52.1667L51.1833 48.8333C50.5333 48.1833 49.4833 48.1833 48.8333 48.8333C48.1833 49.4833 48.1833 50.5333 48.8333 51.1833L52.1667 54.5167C52.5 54.85 52.9167 55 53.35 55C53.7833 55 54.2 54.8333 54.5333 54.5167H54.5167ZM27.85 54.5167L31.1833 51.1833C31.8333 50.5333 31.8333 49.4833 31.1833 48.8333C30.5333 48.1833 29.4833 48.1833 28.8333 48.8333L25.5 52.1667C24.85 52.8167 24.85 53.8667 25.5 54.5167C25.8333 54.85 26.25 55 26.6833 55C27.1167 55 27.5333 54.8333 27.8667 54.5167H27.85ZM51.1833 31.1833L54.5167 27.85C55.1667 27.2 55.1667 26.15 54.5167 25.5C53.8667 24.85 52.8167 24.85 52.1667 25.5L48.8333 28.8333C48.1833 29.4833 48.1833 30.5333 48.8333 31.1833C49.1667 31.5167 49.5833 31.6667 50.0167 31.6667C50.45 31.6667 50.8667 31.5 51.2 31.1833H51.1833Z" fill="#4E3117"/>
</g>
<defs>
<filter id="filter0_iiii_3094_1483" x="-40" y="-40" width="160" height="160" filterUnits="userSpaceOnUse" color-interpolation-filters="sRGB">
<feFlood flood-opacity="0" result="BackgroundImageFix"/>
<feBlend mode="normal" in="SourceGraphic" in2="BackgroundImageFix" result="shape"/>
<feColorMatrix in="SourceAlpha" type="matrix" values="0 0 0 0 0 0 0 0 0 0 0 0 0 0 0 0 0 0 127 0" result="hardAlpha"/>
<feOffset/>
<feGaussianBlur stdDeviation="11"/>
<feComposite in2="hardAlpha" operator="arithmetic" k2="-1" k3="1"/>
<feColorMatrix type="matrix" values="0 0 0 0 0.94902 0 0 0 0 0.94902 0 0 0 0 0.94902 0 0 0 0.5 0"/>
<feBlend mode="plus-darker" in2="shape" result="effect1_innerShadow_3094_1483"/>
<feColorMatrix in="SourceAlpha" type="matrix" values="0 0 0 0 0 0 0 0 0 0 0 0 0 0 0 0 0 0 127 0" result="hardAlpha"/>
<feMorphology radius="2" operator="dilate" in="SourceAlpha" result="effect2_innerShadow_3094_1483"/>
<feOffset dx="2" dy="2"/>
<feGaussianBlur stdDeviation="0.5"/>
<feComposite in2="hardAlpha" operator="arithmetic" k2="-1" k3="1"/>
<feColorMatrix type="matrix" values="0 0 0 0 0.701961 0 0 0 0 0.701961 0 0 0 0 0.701961 0 0 0 1 0"/>
<feBlend mode="plus-lighter" in2="effect1_innerShadow_3094_1483" result="effect2_innerShadow_3094_1483"/>
<feColorMatrix in="SourceAlpha" type="matrix" values="0 0 0 0 0 0 0 0 0 0 0 0 0 0 0 0 0 0 127 0" result="hardAlpha"/>
<feMorphology radius="14" operator="dilate" in="SourceAlpha" result="effect3_innerShadow_3094_1483"/>
<feOffset dx="-12" dy="-12"/>
<feGaussianBlur stdDeviation="3"/>
<feComposite in2="hardAlpha" operator="arithmetic" k2="-1" k3="1"/>
<feColorMatrix type="matrix" values="0 0 0 0 0.701961 0 0 0 0 0.701961 0 0 0 0 0.701961 0 0 0 1 0"/>
<feBlend mode="plus-lighter" in2="effect2_innerShadow_3094_1483" result="effect3_innerShadow_3094_1483"/>
<feColorMatrix in="SourceAlpha" type="matrix" values="0 0 0 0 0 0 0 0 0 0 0 0 0 0 0 0 0 0 127 0" result="hardAlpha"/>
<feMorphology radius="18" operator="dilate" in="SourceAlpha" result="effect4_innerShadow_3094_1483"/>
<feOffset dx="16" dy="16"/>
<feGaussianBlur stdDeviation="4.5"/>
<feComposite in2="hardAlpha" operator="arithmetic" k2="-1" k3="1"/>
<feColorMatrix type="matrix" values="0 0 0 0 1 0 0 0 0 1 0 0 0 0 1 0 0 0 1 0"/>
<feBlend mode="plus-lighter" in2="effect3_innerShadow_3094_1483" result="effect4_innerShadow_3094_1483"/>
</filter>
<clipPath id="bgblur_0_3094_1483_clip_path" transform="translate(40 40)"><path d="M0 40C0 17.9086 17.9086 0 40 0C62.0914 0 80 17.9086 80 40C80 62.0914 62.0914 80 40 80C17.9086 80 0 62.0914 0 40Z"/>
</clipPath><filter id="filter1_i_3094_1483" x="6.87891" y="6.88007" width="66.2383" height="69.92" filterUnits="userSpaceOnUse" color-interpolation-filters="sRGB">
<feFlood flood-opacity="0" result="BackgroundImageFix"/>
<feBlend mode="normal" in="SourceGraphic" in2="BackgroundImageFix" result="shape"/>
<feColorMatrix in="SourceAlpha" type="matrix" values="0 0 0 0 0 0 0 0 0 0 0 0 0 0 0 0 0 0 127 0" result="hardAlpha"/>
<feOffset dy="3.68"/>
<feGaussianBlur stdDeviation="2.76"/>
<feComposite in2="hardAlpha" operator="arithmetic" k2="-1" k3="1"/>
<feColorMatrix type="matrix" values="0 0 0 0 1 0 0 0 0 1 0 0 0 0 1 0 0 0 0.6 0"/>
<feBlend mode="normal" in2="shape" result="effect1_innerShadow_3094_1483"/>
</filter>
<linearGradient id="paint0_linear_3094_1483" x1="40" y1="0" x2="40" y2="80" gradientUnits="userSpaceOnUse">
<stop offset="0.5" stop-color="#666666" stop-opacity="0"/>
<stop offset="1" stop-color="#666666"/>
</linearGradient>
<linearGradient id="paint1_linear_3094_1483" x1="40" y1="0" x2="40" y2="80" gradientUnits="userSpaceOnUse">
<stop stop-color="#666666"/>
<stop offset="0.326923" stop-color="#666666" stop-opacity="0"/>
</linearGradient>
<linearGradient id="paint2_linear_3094_1483" x1="62.9784" y1="89.8845" x2="-9.40086" y2="64.6046" gradientUnits="userSpaceOnUse">
<stop stop-color="#E9B86E"/>
<stop offset="0.215843" stop-color="#E1B068"/>
<stop offset="0.82216" stop-color="#9E6D38"/>
<stop offset="1" stop-color="#683E23"/>
</linearGradient>
<linearGradient id="paint3_linear_3094_1483" x1="39.9992" y1="3.20007" x2="39.9992" y2="66.0667" gradientUnits="userSpaceOnUse">
<stop stop-color="white" stop-opacity="0.53"/>
<stop offset="1" stop-color="white" stop-opacity="0"/>
</linearGradient>
<linearGradient id="paint4_linear_3094_1483" x1="47.3963" y1="2.62178" x2="9.88482" y2="67.7856" gradientUnits="userSpaceOnUse">
<stop stop-color="#FDE7BB"/>
<stop offset="0.149207" stop-color="#E9B86E"/>
<stop offset="0.82216" stop-color="#9E6D38"/>
<stop offset="1" stop-color="#683E23"/>
</linearGradient>
<linearGradient id="paint5_linear_3094_1483" x1="39.9989" y1="6.88006" x2="71.9134" y2="51.5737" gradientUnits="userSpaceOnUse">
<stop stop-color="white" stop-opacity="0.53"/>
<stop offset="1" stop-color="#AD7D43"/>
</linearGradient>
<clipPath id="clip1_3094_1483">
<rect width="40" height="40" fill="white" transform="translate(20 20)"/>
</clipPath>
</defs>
</svg>
