<svg width="12" height="12" viewBox="0 0 12 12" fill="none" xmlns="http://www.w3.org/2000/svg">
<path d="M6 8C6.8355 8 7.5 7.3345 7.5 6.5C7.5 5.6655 6.8355 5 6 5C5.1645 5 4.5 5.6655 4.5 6.5C4.5 7.3345 5.1645 8 6 8Z" fill="#FAECD2"/>
<path d="M10.4085 5.593C10.2912 5.01702 10.0609 4.46999 9.731 3.9835C9.4078 3.50422 8.99528 3.0917 8.516 2.7685C8.02889 2.43974 7.48209 2.20957 6.9065 2.091C6.60406 2.02957 6.29611 1.99941 5.9875 2.001V1L4 2.5L5.9875 4V3.001C6.2295 3 6.4715 3.023 6.705 3.071C7.15236 3.16319 7.57735 3.34205 7.956 3.5975C8.32923 3.84907 8.65043 4.17027 8.902 4.5435C9.29258 5.12115 9.50089 5.80269 9.5 6.5C9.50035 6.96798 9.40684 7.43129 9.225 7.8625C9.13707 8.07042 9.02924 8.26935 8.903 8.4565C8.77704 8.64306 8.63337 8.81703 8.474 8.976C7.98996 9.45905 7.37554 9.79041 6.706 9.9295C6.2404 10.0239 5.7606 10.0239 5.295 9.9295C4.84743 9.83722 4.42226 9.65819 4.0435 9.4025C3.67073 9.15112 3.34988 8.83027 3.0985 8.4575C2.70839 7.87922 2.49997 7.19756 2.5 6.5H1.5C1.49992 7.39694 1.76789 8.27344 2.2695 9.017C2.59346 9.49504 3.00546 9.90704 3.4835 10.231C4.22631 10.7337 5.10306 11.0017 6 11C6.30465 11.0003 6.60854 10.9696 6.907 10.9085C7.48242 10.7899 8.02904 10.5597 8.516 10.231C8.75493 10.0696 8.97778 9.88557 9.1815 9.6815C9.38576 9.47765 9.56995 9.25462 9.7315 9.0155C10.2339 8.27292 10.5016 7.39655 10.5 6.5C10.5003 6.19535 10.4696 5.89146 10.4085 5.593Z" fill="#FAECD2"/>
</svg>
