<svg width="12" height="12" viewBox="0 0 12 12" fill="none" xmlns="http://www.w3.org/2000/svg">
<g clip-path="url(#clip0_3383_1588)">
<path d="M11.565 9.045L10.76 9.85C10.66 9.95 10.535 9.995 10.405 9.995C10.275 9.995 10.15 9.945 10.05 9.85C9.855 9.655 9.855 9.34 10.05 9.145L10.695 8.5H6.995C6.72 8.5 6.495 8.275 6.495 8C6.495 7.725 6.72 7.5 6.995 7.5H10.695L10.05 6.855C9.855 6.66 9.855 6.345 10.05 6.15C10.245 5.955 10.56 5.955 10.755 6.15L11.56 6.955C12.135 7.53 12.135 8.47 11.56 9.05L11.565 9.045ZM6.5 4H9.77C9.595 3.545 9.33 3.125 8.975 2.77L7.235 1.025C6.88 0.67 6.46 0.405 6.005 0.23V3.5C6.005 3.775 6.23 4 6.505 4H6.5ZM8.905 9.5H7C6.175 9.5 5.5 8.825 5.5 8C5.5 7.175 6.175 6.5 7 6.5H8.905C8.905 6.115 9.05 5.73 9.345 5.44C9.53 5.255 9.755 5.125 9.99 5.06V5H6.5C5.675 5 5 4.325 5 3.5V0.01C4.92 0.005 4.84 0 4.755 0H2.5C1.12 0 0 1.12 0 2.5V9.5C0 10.88 1.12 12 2.5 12H7.5C8.405 12 9.2 11.515 9.64 10.79C9.535 10.725 9.435 10.65 9.345 10.56C9.055 10.27 8.905 9.885 8.905 9.5Z" fill="#4E3117"/>
</g>
<defs>
<clipPath id="clip0_3383_1588">
<rect width="12" height="12" fill="white"/>
</clipPath>
</defs>
</svg>
