<svg width="20" height="20" viewBox="0 0 20 20" fill="none" xmlns="http://www.w3.org/2000/svg">
<path d="M8.6899 2.43159C8.82107 2.19966 9.01146 2.00671 9.24162 1.87247C9.47178 1.73822 9.73345 1.66748 9.9999 1.66748C10.2663 1.66748 10.528 1.73822 10.7582 1.87247C10.9883 2.00671 11.1787 2.19966 11.3099 2.43159L18.1299 14.3799C18.7099 15.3966 17.9816 16.6666 16.8182 16.6666H3.18323C2.0199 16.6666 1.29157 15.3966 1.87157 14.3799L8.6899 2.43159ZM9.16657 7.49992V9.16659C9.16657 9.3876 9.25436 9.59956 9.41064 9.75584C9.56692 9.91212 9.77888 9.99992 9.9999 9.99992C10.2209 9.99992 10.4329 9.91212 10.5892 9.75584C10.7454 9.59956 10.8332 9.3876 10.8332 9.16659V7.49992C10.8332 7.2789 10.7454 7.06694 10.5892 6.91066C10.4329 6.75438 10.2209 6.66659 9.9999 6.66659C9.77888 6.66659 9.56692 6.75438 9.41064 6.91066C9.25436 7.06694 9.16657 7.2789 9.16657 7.49992ZM9.9999 11.2499C9.66838 11.2499 9.35044 11.3816 9.11602 11.616C8.88159 11.8505 8.7499 12.1684 8.7499 12.4999C8.7499 12.8314 8.88159 13.1494 9.11602 13.3838C9.35044 13.6182 9.66838 13.7499 9.9999 13.7499C10.3314 13.7499 10.6494 13.6182 10.8838 13.3838C11.1182 13.1494 11.2499 12.8314 11.2499 12.4999C11.2499 12.1684 11.1182 11.8505 10.8838 11.616C10.6494 11.3816 10.3314 11.2499 9.9999 11.2499Z" fill="#FAECD2"/>
</svg>
