<svg width="20" height="20" viewBox="0 0 20 20" fill="none" xmlns="http://www.w3.org/2000/svg">
<path d="M8.33325 18.3333V12.8583" stroke="#816A4A" stroke-width="1.2" stroke-linecap="round" stroke-linejoin="round"/>
<path d="M10 9.16667H10.0083" stroke="#816A4A" stroke-width="1.2" stroke-linecap="round" stroke-linejoin="round"/>
<path d="M10 5.83333H10.0083" stroke="#816A4A" stroke-width="1.2" stroke-linecap="round" stroke-linejoin="round"/>
<path d="M11.6667 12.8583V18.3333" stroke="#816A4A" stroke-width="1.2" stroke-linecap="round" stroke-linejoin="round"/>
<path d="M12.5 13.3333C11.7788 12.7924 10.9015 12.5 10 12.5C9.09846 12.5 8.22123 12.7924 7.5 13.3333" stroke="#816A4A" stroke-width="1.2" stroke-linecap="round" stroke-linejoin="round"/>
<path d="M13.3333 9.16667H13.3416" stroke="#816A4A" stroke-width="1.2" stroke-linecap="round" stroke-linejoin="round"/>
<path d="M13.3333 5.83333H13.3416" stroke="#816A4A" stroke-width="1.2" stroke-linecap="round" stroke-linejoin="round"/>
<path d="M6.66675 9.16667H6.67508" stroke="#816A4A" stroke-width="1.2" stroke-linecap="round" stroke-linejoin="round"/>
<path d="M6.66675 5.83333H6.67508" stroke="#816A4A" stroke-width="1.2" stroke-linecap="round" stroke-linejoin="round"/>
<path d="M14.9999 1.66667H4.99992C4.07944 1.66667 3.33325 2.41286 3.33325 3.33333V16.6667C3.33325 17.5871 4.07944 18.3333 4.99992 18.3333H14.9999C15.9204 18.3333 16.6666 17.5871 16.6666 16.6667V3.33333C16.6666 2.41286 15.9204 1.66667 14.9999 1.66667Z" stroke="#816A4A" stroke-width="1.2" stroke-linecap="round" stroke-linejoin="round"/>
</svg>
