<svg width="52" height="52" viewBox="0 0 52 52" fill="none" xmlns="http://www.w3.org/2000/svg">
<rect width="52" height="52" rx="26" fill="#FAECD2" fill-opacity="0.16"/>
<rect x="0.5" y="0.5" width="51" height="51" rx="25.5" stroke="#FAECD2" stroke-opacity="0.24"/>
<g clip-path="url(#clip0_3123_1418)">
<path d="M33.5 23C33.04 23 32.626 22.72 32.455 22.292L31.602 20.381L29.688 19.484C29.264 19.305 28.991 18.887 29 18.427C29.009 17.967 29.297 17.559 29.727 17.396L31.675 16.658L32.455 14.707C32.626 14.28 33.039 13.999 33.5 13.999C33.961 13.999 34.374 14.279 34.545 14.707L35.33 16.67L37.293 17.455C37.72 17.626 38.001 18.039 38.001 18.5C38.001 18.961 37.721 19.374 37.293 19.545L35.33 20.33L34.545 22.293C34.374 22.72 33.961 23.001 33.5 23.001V23ZM36.662 24.473C35.44 24.978 34.044 25.148 32.586 24.861C29.866 24.325 27.675 22.134 27.139 19.414C26.852 17.956 27.021 16.56 27.527 15.338C27.791 14.699 27.323 14 26.632 14H19C16.239 14 14 16.239 14 19V33C14 35.761 16.239 38 19 38H33C35.761 38 38 35.761 38 33V25.368C38 24.677 37.301 24.209 36.662 24.473ZM27.698 33C27.255 33 26.867 32.706 26.746 32.28L26.103 30H20.897L20.254 32.28C20.134 32.706 19.745 33 19.302 33C18.648 33 18.174 32.376 18.349 31.746L21.44 20.638C21.581 20.03 21.981 19.518 22.538 19.233C23.106 18.941 23.758 18.923 24.377 19.183C24.964 19.429 25.414 20 25.581 20.718L28.652 31.747C28.827 32.377 28.354 33.001 27.699 33.001L27.698 33ZM33 32C33 32.552 32.552 33 32 33C31.448 33 31 32.552 31 32V27.088C31 26.536 31.448 26.088 32 26.088C32.552 26.088 33 26.536 33 27.088V32ZM23.39 21.165L21.461 28H25.538L23.609 21.165C23.58 21.051 23.418 21.051 23.39 21.165Z" fill="#FAECD2"/>
</g>
<defs>
<clipPath id="clip0_3123_1418">
<rect width="24" height="24" fill="white" transform="translate(14 14)"/>
</clipPath>
</defs>
</svg>
