<svg width="20" height="20" viewBox="0 0 20 20" fill="none" xmlns="http://www.w3.org/2000/svg">
<path d="M16.6668 10.8333C16.6668 15 13.7502 17.0833 10.2835 18.2917C10.102 18.3532 9.90478 18.3502 9.72516 18.2833C6.25016 17.0833 3.3335 15 3.3335 10.8333V5C3.3335 4.77899 3.42129 4.56703 3.57757 4.41075C3.73385 4.25447 3.94582 4.16667 4.16683 4.16667C5.8335 4.16667 7.91683 3.16667 9.36683 1.9C9.54337 1.74917 9.76796 1.66629 10.0002 1.66629C10.2324 1.66629 10.457 1.74917 10.6335 1.9C12.0918 3.175 14.1668 4.16667 15.8335 4.16667C16.0545 4.16667 16.2665 4.25447 16.4228 4.41075C16.579 4.56703 16.6668 4.77899 16.6668 5V10.8333Z" stroke="#816A4A" stroke-width="1.2" stroke-linecap="round" stroke-linejoin="round"/>
<path d="M5.31348 15.7583C5.66907 14.8018 6.30883 13.977 7.14683 13.3947C7.98483 12.8123 8.98096 12.5004 10.0014 12.5006C11.0219 12.5009 12.0179 12.8134 12.8556 13.3962C13.6932 13.979 14.3326 14.8041 14.6876 15.7608" stroke="#816A4A" stroke-width="1.2" stroke-linecap="round" stroke-linejoin="round"/>
<path d="M9.99984 12.5C11.8408 12.5 13.3332 11.0076 13.3332 9.16667C13.3332 7.32572 11.8408 5.83333 9.99984 5.83333C8.15889 5.83333 6.6665 7.32572 6.6665 9.16667C6.6665 11.0076 8.15889 12.5 9.99984 12.5Z" stroke="#816A4A" stroke-width="1.2" stroke-linecap="round" stroke-linejoin="round"/>
</svg>
