<svg width="96" height="36" viewBox="0 0 96 36" fill="none" xmlns="http://www.w3.org/2000/svg">
<foreignObject x="-47.3684" y="-47.3684" width="136.366" height="130.737"><div xmlns="http://www.w3.org/1999/xhtml" style="backdrop-filter:blur(23.68px);clip-path:url(#bgblur_0_3383_1738_clip_path);height:100%;width:100%"></div></foreignObject><g filter="url(#filter0_iiii_3383_1738)" data-figma-bg-blur-radius="47.3684">
<path d="M0 18C0 8.05888 8.05888 0 18 0H23.63C33.5711 0 41.63 8.05888 41.63 18C41.63 27.9411 33.5711 36 23.63 36H18C8.05888 36 0 27.9411 0 18Z" fill="#1D1D1D" style="mix-blend-mode:plus-lighter"/>
<path d="M0 18C0 8.05888 8.05888 0 18 0H23.63C33.5711 0 41.63 8.05888 41.63 18C41.63 27.9411 33.5711 36 23.63 36H18C8.05888 36 0 27.9411 0 18Z" fill="#1D1D1D" fill-opacity="0.2" style="mix-blend-mode:color-burn"/>
<path d="M0 18C0 8.05888 8.05888 0 18 0H23.63C33.5711 0 41.63 8.05888 41.63 18C41.63 27.9411 33.5711 36 23.63 36H18C8.05888 36 0 27.9411 0 18Z" fill="url(#paint0_linear_3383_1738)" fill-opacity="0.4" style="mix-blend-mode:plus-lighter"/>
<path d="M0 18C0 8.05888 8.05888 0 18 0H23.63C33.5711 0 41.63 8.05888 41.63 18C41.63 27.9411 33.5711 36 23.63 36H18C8.05888 36 0 27.9411 0 18Z" fill="url(#paint1_linear_3383_1738)" fill-opacity="0.2" style="mix-blend-mode:plus-lighter"/>
</g>
<rect x="2.79474" y="2.79474" width="36.0405" height="30.4105" rx="15.2053" fill="url(#paint2_linear_3383_1738)" stroke="url(#paint3_linear_3383_1738)" stroke-width="1.08947"/>
<g filter="url(#filter1_i_3383_1738)">
<rect x="5.625" y="4.5" width="30.38" height="27" rx="13.5" fill="url(#paint4_linear_3383_1738)"/>
</g>
<rect x="6.16776" y="5.04276" width="29.2945" height="25.9145" rx="12.9572" stroke="url(#paint5_linear_3383_1738)" stroke-width="1.08553"/>
<path d="M17.8125 14.25C17.6136 14.25 17.4228 14.329 17.2822 14.4697C17.1415 14.6103 17.0625 14.8011 17.0625 15V21C17.0625 21.1989 17.1415 21.3897 17.2822 21.5303C17.4228 21.671 17.6136 21.75 17.8125 21.75H23.8125C24.0114 21.75 24.2022 21.671 24.3428 21.5303C24.4835 21.3897 24.5625 21.1989 24.5625 21V20.625C24.5625 20.3266 24.681 20.0405 24.892 19.8295C25.103 19.6185 25.3891 19.5 25.6875 19.5C25.9859 19.5 26.272 19.6185 26.483 19.8295C26.694 20.0405 26.8125 20.3266 26.8125 20.625V21C26.8125 21.7956 26.4964 22.5587 25.9338 23.1213C25.3712 23.6839 24.6081 24 23.8125 24H17.8125C17.0169 24 16.2538 23.6839 15.6912 23.1213C15.1286 22.5587 14.8125 21.7956 14.8125 21V15C14.8125 14.2044 15.1286 13.4413 15.6912 12.8787C16.2538 12.3161 17.0169 12 17.8125 12H18.1875C18.4859 12 18.772 12.1185 18.983 12.3295C19.194 12.5405 19.3125 12.8266 19.3125 13.125C19.3125 13.4234 19.194 13.7095 18.983 13.9205C18.772 14.1315 18.4859 14.25 18.1875 14.25H17.8125ZM21.9375 14.25C21.6391 14.25 21.353 14.1315 21.142 13.9205C20.931 13.7095 20.8125 13.4234 20.8125 13.125C20.8125 12.8266 20.931 12.5405 21.142 12.3295C21.353 12.1185 21.6391 12 21.9375 12H25.6875C25.9859 12 26.272 12.1185 26.483 12.3295C26.694 12.5405 26.8125 12.8266 26.8125 13.125V16.875C26.8125 17.1734 26.694 17.4595 26.483 17.6705C26.272 17.8815 25.9859 18 25.6875 18C25.3891 18 25.103 17.8815 24.892 17.6705C24.681 17.4595 24.5625 17.1734 24.5625 16.875V15.84L22.7325 17.67C22.5192 17.8687 22.2372 17.9769 21.9457 17.9718C21.6543 17.9666 21.3762 17.8486 21.1701 17.6424C20.9639 17.4363 20.8459 17.1582 20.8407 16.8668C20.8356 16.5753 20.9438 16.2933 21.1425 16.08L22.9725 14.25H21.9375Z" fill="#4E3117"/>
<defs>
<filter id="filter0_iiii_3383_1738" x="-47.3684" y="-47.3684" width="136.366" height="130.737" filterUnits="userSpaceOnUse" color-interpolation-filters="sRGB">
<feFlood flood-opacity="0" result="BackgroundImageFix"/>
<feBlend mode="normal" in="SourceGraphic" in2="BackgroundImageFix" result="shape"/>
<feColorMatrix in="SourceAlpha" type="matrix" values="0 0 0 0 0 0 0 0 0 0 0 0 0 0 0 0 0 0 127 0" result="hardAlpha"/>
<feOffset/>
<feGaussianBlur stdDeviation="13.0263"/>
<feComposite in2="hardAlpha" operator="arithmetic" k2="-1" k3="1"/>
<feColorMatrix type="matrix" values="0 0 0 0 0.94902 0 0 0 0 0.94902 0 0 0 0 0.94902 0 0 0 0.5 0"/>
<feBlend mode="plus-darker" in2="shape" result="effect1_innerShadow_3383_1738"/>
<feColorMatrix in="SourceAlpha" type="matrix" values="0 0 0 0 0 0 0 0 0 0 0 0 0 0 0 0 0 0 127 0" result="hardAlpha"/>
<feMorphology radius="2.36842" operator="dilate" in="SourceAlpha" result="effect2_innerShadow_3383_1738"/>
<feOffset dx="2.36842" dy="2.36842"/>
<feGaussianBlur stdDeviation="0.592105"/>
<feComposite in2="hardAlpha" operator="arithmetic" k2="-1" k3="1"/>
<feColorMatrix type="matrix" values="0 0 0 0 0.701961 0 0 0 0 0.701961 0 0 0 0 0.701961 0 0 0 1 0"/>
<feBlend mode="plus-lighter" in2="effect1_innerShadow_3383_1738" result="effect2_innerShadow_3383_1738"/>
<feColorMatrix in="SourceAlpha" type="matrix" values="0 0 0 0 0 0 0 0 0 0 0 0 0 0 0 0 0 0 127 0" result="hardAlpha"/>
<feMorphology radius="16.5789" operator="dilate" in="SourceAlpha" result="effect3_innerShadow_3383_1738"/>
<feOffset dx="-14.2105" dy="-14.2105"/>
<feGaussianBlur stdDeviation="3.55263"/>
<feComposite in2="hardAlpha" operator="arithmetic" k2="-1" k3="1"/>
<feColorMatrix type="matrix" values="0 0 0 0 0.701961 0 0 0 0 0.701961 0 0 0 0 0.701961 0 0 0 1 0"/>
<feBlend mode="plus-lighter" in2="effect2_innerShadow_3383_1738" result="effect3_innerShadow_3383_1738"/>
<feColorMatrix in="SourceAlpha" type="matrix" values="0 0 0 0 0 0 0 0 0 0 0 0 0 0 0 0 0 0 127 0" result="hardAlpha"/>
<feMorphology radius="21.3158" operator="dilate" in="SourceAlpha" result="effect4_innerShadow_3383_1738"/>
<feOffset dx="18.9474" dy="18.9474"/>
<feGaussianBlur stdDeviation="5.32895"/>
<feComposite in2="hardAlpha" operator="arithmetic" k2="-1" k3="1"/>
<feColorMatrix type="matrix" values="0 0 0 0 1 0 0 0 0 1 0 0 0 0 1 0 0 0 1 0"/>
<feBlend mode="plus-lighter" in2="effect3_innerShadow_3383_1738" result="effect4_innerShadow_3383_1738"/>
</filter>
<clipPath id="bgblur_0_3383_1738_clip_path" transform="translate(47.3684 47.3684)"><path d="M0 18C0 8.05888 8.05888 0 18 0H23.63C33.5711 0 41.63 8.05888 41.63 18C41.63 27.9411 33.5711 36 23.63 36H18C8.05888 36 0 27.9411 0 18Z"/>
</clipPath><filter id="filter1_i_3383_1738" x="5.625" y="4.5" width="30.3789" height="31.3421" filterUnits="userSpaceOnUse" color-interpolation-filters="sRGB">
<feFlood flood-opacity="0" result="BackgroundImageFix"/>
<feBlend mode="normal" in="SourceGraphic" in2="BackgroundImageFix" result="shape"/>
<feColorMatrix in="SourceAlpha" type="matrix" values="0 0 0 0 0 0 0 0 0 0 0 0 0 0 0 0 0 0 127 0" result="hardAlpha"/>
<feOffset dy="4.3421"/>
<feGaussianBlur stdDeviation="3.25658"/>
<feComposite in2="hardAlpha" operator="arithmetic" k2="-1" k3="1"/>
<feColorMatrix type="matrix" values="0 0 0 0 1 0 0 0 0 1 0 0 0 0 1 0 0 0 0.6 0"/>
<feBlend mode="normal" in2="shape" result="effect1_innerShadow_3383_1738"/>
</filter>
<linearGradient id="paint0_linear_3383_1738" x1="20.815" y1="0" x2="20.815" y2="36" gradientUnits="userSpaceOnUse">
<stop offset="0.5" stop-color="#666666" stop-opacity="0"/>
<stop offset="1" stop-color="#666666"/>
</linearGradient>
<linearGradient id="paint1_linear_3383_1738" x1="20.815" y1="0" x2="20.815" y2="36" gradientUnits="userSpaceOnUse">
<stop stop-color="#666666"/>
<stop offset="0.326923" stop-color="#666666" stop-opacity="0"/>
</linearGradient>
<linearGradient id="paint2_linear_3383_1738" x1="32.4076" y1="39.35" x2="-2.62338" y2="24.9279" gradientUnits="userSpaceOnUse">
<stop stop-color="#C7B7A5"/>
<stop offset="0.215843" stop-color="#AB8E6F"/>
<stop offset="0.82216" stop-color="#824F3C"/>
<stop offset="1" stop-color="#3C241B"/>
</linearGradient>
<linearGradient id="paint3_linear_3383_1738" x1="20.815" y1="2.25" x2="20.815" y2="29.1563" gradientUnits="userSpaceOnUse">
<stop stop-color="white" stop-opacity="0.53"/>
<stop offset="1" stop-color="white" stop-opacity="0"/>
</linearGradient>
<linearGradient id="paint4_linear_3383_1738" x1="24.2077" y1="2.76429" x2="9.86887" y2="30.7915" gradientUnits="userSpaceOnUse">
<stop stop-color="#D3C1AD"/>
<stop offset="0.149207" stop-color="#C0A88F"/>
<stop offset="0.82216" stop-color="#9B7B5F"/>
<stop offset="1" stop-color="#7C5F48"/>
</linearGradient>
<linearGradient id="paint5_linear_3383_1738" x1="20.815" y1="4.5" x2="33.2594" y2="24.1091" gradientUnits="userSpaceOnUse">
<stop stop-color="white" stop-opacity="0.53"/>
<stop offset="1" stop-color="#9B7B5F"/>
</linearGradient>
</defs>
</svg>
