<svg width="241" height="40" viewBox="0 0 241 40" fill="none" xmlns="http://www.w3.org/2000/svg">
<rect x="1" y="9.5" width="239" height="22" rx="7" fill="#C7B7A5" stroke="url(#paint0_linear_1143_562)" stroke-width="2"/>
<rect x="1" y="9" width="118" height="22" rx="7" fill="url(#paint1_linear_1143_562)" stroke="url(#paint2_linear_1143_562)" stroke-width="2"/>
<foreignObject x="62" y="-20" width="80" height="80"><div xmlns="http://www.w3.org/1999/xhtml" style="backdrop-filter:blur(10px);clip-path:url(#bgblur_0_1143_562_clip_path);height:100%;width:100%"></div></foreignObject><g filter="url(#filter0_iiii_1143_562)" data-figma-bg-blur-radius="20">
<path d="M82 20C82 8.95431 90.9543 0 102 0C113.046 0 122 8.95431 122 20C122 31.0457 113.046 40 102 40C90.9543 40 82 31.0457 82 20Z" fill="#1D1D1D" style="mix-blend-mode:plus-lighter"/>
<path d="M82 20C82 8.95431 90.9543 0 102 0C113.046 0 122 8.95431 122 20C122 31.0457 113.046 40 102 40C90.9543 40 82 31.0457 82 20Z" fill="#1D1D1D" fill-opacity="0.2" style="mix-blend-mode:color-burn"/>
<path d="M82 20C82 8.95431 90.9543 0 102 0C113.046 0 122 8.95431 122 20C122 31.0457 113.046 40 102 40C90.9543 40 82 31.0457 82 20Z" fill="url(#paint3_linear_1143_562)" fill-opacity="0.4" style="mix-blend-mode:plus-lighter"/>
<path d="M82 20C82 8.95431 90.9543 0 102 0C113.046 0 122 8.95431 122 20C122 31.0457 113.046 40 102 40C90.9543 40 82 31.0457 82 20Z" fill="url(#paint4_linear_1143_562)" fill-opacity="0.2" style="mix-blend-mode:plus-lighter"/>
</g>
<rect x="83.8277" y="1.83001" width="36.34" height="36.34" rx="18.17" fill="url(#paint5_linear_1143_562)" stroke="url(#paint6_linear_1143_562)" stroke-width="0.46"/>
<g filter="url(#filter1_i_1143_562)">
<rect x="85.4961" y="3.5" width="33" height="33" rx="16.5" fill="url(#paint7_linear_1143_562)"/>
</g>
<rect x="85.7253" y="3.72917" width="32.5417" height="32.5417" rx="16.2708" stroke="url(#paint8_linear_1143_562)" stroke-width="0.458333"/>
<defs>
<filter id="filter0_iiii_1143_562" x="62" y="-20" width="80" height="80" filterUnits="userSpaceOnUse" color-interpolation-filters="sRGB">
<feFlood flood-opacity="0" result="BackgroundImageFix"/>
<feBlend mode="normal" in="SourceGraphic" in2="BackgroundImageFix" result="shape"/>
<feColorMatrix in="SourceAlpha" type="matrix" values="0 0 0 0 0 0 0 0 0 0 0 0 0 0 0 0 0 0 127 0" result="hardAlpha"/>
<feOffset/>
<feGaussianBlur stdDeviation="5.5"/>
<feComposite in2="hardAlpha" operator="arithmetic" k2="-1" k3="1"/>
<feColorMatrix type="matrix" values="0 0 0 0 0.94902 0 0 0 0 0.94902 0 0 0 0 0.94902 0 0 0 0.5 0"/>
<feBlend mode="plus-darker" in2="shape" result="effect1_innerShadow_1143_562"/>
<feColorMatrix in="SourceAlpha" type="matrix" values="0 0 0 0 0 0 0 0 0 0 0 0 0 0 0 0 0 0 127 0" result="hardAlpha"/>
<feMorphology radius="1" operator="dilate" in="SourceAlpha" result="effect2_innerShadow_1143_562"/>
<feOffset dx="1" dy="1"/>
<feGaussianBlur stdDeviation="0.25"/>
<feComposite in2="hardAlpha" operator="arithmetic" k2="-1" k3="1"/>
<feColorMatrix type="matrix" values="0 0 0 0 0.701961 0 0 0 0 0.701961 0 0 0 0 0.701961 0 0 0 1 0"/>
<feBlend mode="plus-lighter" in2="effect1_innerShadow_1143_562" result="effect2_innerShadow_1143_562"/>
<feColorMatrix in="SourceAlpha" type="matrix" values="0 0 0 0 0 0 0 0 0 0 0 0 0 0 0 0 0 0 127 0" result="hardAlpha"/>
<feMorphology radius="7" operator="dilate" in="SourceAlpha" result="effect3_innerShadow_1143_562"/>
<feOffset dx="-6" dy="-6"/>
<feGaussianBlur stdDeviation="1.5"/>
<feComposite in2="hardAlpha" operator="arithmetic" k2="-1" k3="1"/>
<feColorMatrix type="matrix" values="0 0 0 0 0.701961 0 0 0 0 0.701961 0 0 0 0 0.701961 0 0 0 1 0"/>
<feBlend mode="plus-lighter" in2="effect2_innerShadow_1143_562" result="effect3_innerShadow_1143_562"/>
<feColorMatrix in="SourceAlpha" type="matrix" values="0 0 0 0 0 0 0 0 0 0 0 0 0 0 0 0 0 0 127 0" result="hardAlpha"/>
<feMorphology radius="9" operator="dilate" in="SourceAlpha" result="effect4_innerShadow_1143_562"/>
<feOffset dx="8" dy="8"/>
<feGaussianBlur stdDeviation="2.25"/>
<feComposite in2="hardAlpha" operator="arithmetic" k2="-1" k3="1"/>
<feColorMatrix type="matrix" values="0 0 0 0 1 0 0 0 0 1 0 0 0 0 1 0 0 0 1 0"/>
<feBlend mode="plus-lighter" in2="effect3_innerShadow_1143_562" result="effect4_innerShadow_1143_562"/>
</filter>
<clipPath id="bgblur_0_1143_562_clip_path" transform="translate(-62 20)"><path d="M82 20C82 8.95431 90.9543 0 102 0C113.046 0 122 8.95431 122 20C122 31.0457 113.046 40 102 40C90.9543 40 82 31.0457 82 20Z"/>
</clipPath><filter id="filter1_i_1143_562" x="85.4961" y="3.5" width="33" height="34.8333" filterUnits="userSpaceOnUse" color-interpolation-filters="sRGB">
<feFlood flood-opacity="0" result="BackgroundImageFix"/>
<feBlend mode="normal" in="SourceGraphic" in2="BackgroundImageFix" result="shape"/>
<feColorMatrix in="SourceAlpha" type="matrix" values="0 0 0 0 0 0 0 0 0 0 0 0 0 0 0 0 0 0 127 0" result="hardAlpha"/>
<feOffset dy="1.83333"/>
<feGaussianBlur stdDeviation="1.375"/>
<feComposite in2="hardAlpha" operator="arithmetic" k2="-1" k3="1"/>
<feColorMatrix type="matrix" values="0 0 0 0 1 0 0 0 0 1 0 0 0 0 1 0 0 0 0.6 0"/>
<feBlend mode="normal" in2="shape" result="effect1_innerShadow_1143_562"/>
</filter>
<linearGradient id="paint0_linear_1143_562" x1="120.5" y1="8.5" x2="120.5" y2="29" gradientUnits="userSpaceOnUse">
<stop stop-color="white" stop-opacity="0.53"/>
<stop offset="1" stop-color="white" stop-opacity="0"/>
</linearGradient>
<linearGradient id="paint1_linear_1143_562" x1="0" y1="20" x2="120" y2="20" gradientUnits="userSpaceOnUse">
<stop stop-color="#9B7B5F"/>
<stop offset="1" stop-color="#7C5F48"/>
</linearGradient>
<linearGradient id="paint2_linear_1143_562" x1="60" y1="8" x2="60" y2="28.5" gradientUnits="userSpaceOnUse">
<stop stop-color="white" stop-opacity="0.53"/>
<stop offset="1" stop-color="white" stop-opacity="0"/>
</linearGradient>
<linearGradient id="paint3_linear_1143_562" x1="102" y1="0" x2="102" y2="40" gradientUnits="userSpaceOnUse">
<stop offset="0.5" stop-color="#666666" stop-opacity="0"/>
<stop offset="1" stop-color="#666666"/>
</linearGradient>
<linearGradient id="paint4_linear_1143_562" x1="102" y1="0" x2="102" y2="40" gradientUnits="userSpaceOnUse">
<stop stop-color="#666666"/>
<stop offset="0.326923" stop-color="#666666" stop-opacity="0"/>
</linearGradient>
<linearGradient id="paint5_linear_1143_562" x1="113.487" y1="44.9422" x2="77.2976" y2="32.3023" gradientUnits="userSpaceOnUse">
<stop stop-color="#C7B7A5"/>
<stop offset="0.215843" stop-color="#AB8E6F"/>
<stop offset="0.82216" stop-color="#824F3C"/>
<stop offset="1" stop-color="#3C241B"/>
</linearGradient>
<linearGradient id="paint6_linear_1143_562" x1="101.998" y1="1.60001" x2="101.998" y2="33.0333" gradientUnits="userSpaceOnUse">
<stop stop-color="white" stop-opacity="0.53"/>
<stop offset="1" stop-color="white" stop-opacity="0"/>
</linearGradient>
<linearGradient id="paint7_linear_1143_562" x1="105.681" y1="1.37857" x2="86.9936" y2="33.8424" gradientUnits="userSpaceOnUse">
<stop stop-color="#D3C1AD"/>
<stop offset="0.149207" stop-color="#C0A88F"/>
<stop offset="0.82216" stop-color="#9B7B5F"/>
<stop offset="1" stop-color="#7C5F48"/>
</linearGradient>
<linearGradient id="paint8_linear_1143_562" x1="101.996" y1="3.5" x2="117.896" y2="25.7659" gradientUnits="userSpaceOnUse">
<stop stop-color="white" stop-opacity="0.53"/>
<stop offset="1" stop-color="#9B7B5F"/>
</linearGradient>
</defs>
</svg>
