<svg width="32" height="32" viewBox="0 0 32 32" fill="none" xmlns="http://www.w3.org/2000/svg">
<g clip-path="url(#clip0_1426_668)">
<path d="M20 0H12C8.31867 0 5.33333 2.98533 5.33333 6.66667V28C5.33333 30.2093 7.124 32 9.33333 32H22.6667C24.876 32 26.6667 30.2093 26.6667 28V6.66667C26.6667 2.98533 23.6813 0 20 0ZM13.3333 25.3333H12C11.2627 25.3333 10.6667 24.736 10.6667 24C10.6667 23.264 11.2627 22.6667 12 22.6667H13.3333C14.0707 22.6667 14.6667 23.264 14.6667 24C14.6667 24.736 14.0707 25.3333 13.3333 25.3333ZM13.3333 20H12C11.2627 20 10.6667 19.4027 10.6667 18.6667C10.6667 17.9307 11.2627 17.3333 12 17.3333H13.3333C14.0707 17.3333 14.6667 17.9307 14.6667 18.6667C14.6667 19.4027 14.0707 20 13.3333 20ZM16 13.3333C15.2627 13.3333 14.6667 12.736 14.6667 12V10.6667H13.3333C12.596 10.6667 12 10.0693 12 9.33333C12 8.59733 12.596 8 13.3333 8H14.6667V6.66667C14.6667 5.93067 15.2627 5.33333 16 5.33333C16.7373 5.33333 17.3333 5.93067 17.3333 6.66667V8H18.6667C19.404 8 20 8.59733 20 9.33333C20 10.0693 19.404 10.6667 18.6667 10.6667H17.3333V12C17.3333 12.736 16.7373 13.3333 16 13.3333ZM20 25.3333H18.6667C17.9293 25.3333 17.3333 24.736 17.3333 24C17.3333 23.264 17.9293 22.6667 18.6667 22.6667H20C20.7373 22.6667 21.3333 23.264 21.3333 24C21.3333 24.736 20.7373 25.3333 20 25.3333ZM20 20H18.6667C17.9293 20 17.3333 19.4027 17.3333 18.6667C17.3333 17.9307 17.9293 17.3333 18.6667 17.3333H20C20.7373 17.3333 21.3333 17.9307 21.3333 18.6667C21.3333 19.4027 20.7373 20 20 20ZM2.66667 30.632C1.05733 29.4133 0 27.5013 0 25.3333V14.6667C0 12.4973 1.05733 10.5853 2.66667 9.368V30.632ZM32 14.6667V25.3333C32 27.5027 30.9427 29.4147 29.3333 30.632V9.368C30.9427 10.5867 32 12.4987 32 14.6667Z" fill="#4E3117"/>
</g>
<defs>
<clipPath id="clip0_1426_668">
<rect width="32" height="32" fill="white"/>
</clipPath>
</defs>
</svg>
