<svg width="275" height="271" viewBox="0 0 275 271" fill="none" xmlns="http://www.w3.org/2000/svg">
<rect opacity="0.4" x="88.4062" y="8.69176" width="45.5518" height="8.67653" rx="4.33827" transform="rotate(-11 88.4062 8.69176)" fill="#C9AF85"/>
<rect opacity="0.4" x="43.9102" y="35.7105" width="45.5518" height="8.67653" rx="4.33827" transform="rotate(-33 43.9102 35.7105)" fill="#C9AF85"/>
<rect opacity="0.4" x="13.5391" y="80.5582" width="45.5518" height="8.67653" rx="4.33827" transform="rotate(-57 13.5391 80.5582)" fill="#C9AF85"/>
<rect opacity="0.4" width="45.5518" height="8.67653" rx="4.33827" transform="matrix(0.544639 0.838671 0.838671 -0.544639 13.5391 190.243)" fill="#C9AF85"/>
<rect opacity="0.4" width="45.5518" height="8.67653" rx="4.33827" transform="matrix(-0.544639 -0.838671 -0.838671 0.544639 261.453 80.5582)" fill="#C9AF85"/>
<rect opacity="0.4" width="45.5518" height="8.67653" rx="4.33827" transform="matrix(-0.207912 -0.978148 -0.978148 0.207912 275 130.747)" fill="#C9AF85"/>
<rect opacity="0.4" x="275" y="138.97" width="45.5518" height="8.67653" rx="4.33827" transform="rotate(102 275 138.97)" fill="#C9AF85"/>
<rect opacity="0.4" x="17.957" y="87.995" width="45.5518" height="8.67653" rx="4.33827" transform="rotate(102 17.957 87.995)" fill="#C9AF85"/>
<rect opacity="0.4" width="45.5518" height="8.67653" rx="4.33827" transform="matrix(-0.207912 -0.978148 -0.978148 0.207912 17.957 181.722)" fill="#C9AF85"/>
<rect opacity="0.4" x="261.453" y="190.243" width="45.5518" height="8.67653" rx="4.33827" transform="rotate(123 261.453 190.243)" fill="#C9AF85"/>
<rect opacity="0.4" width="45.5518" height="8.67653" rx="4.33827" transform="matrix(0.838671 0.544639 0.544639 -0.838671 43.9102 235.091)" fill="#C9AF85"/>
<rect opacity="0.4" width="45.5518" height="8.67653" rx="4.33827" transform="matrix(-0.838671 -0.544639 -0.544639 0.838671 231.086 35.7105)" fill="#C9AF85"/>
<rect opacity="0.4" x="231.086" y="235.091" width="45.5518" height="8.67653" rx="4.33827" transform="rotate(147 231.086 235.091)" fill="#C9AF85"/>
<rect opacity="0.4" width="45.5518" height="8.67653" rx="4.33827" transform="matrix(0.981627 0.190809 0.190809 -0.981627 88.4062 262.306)" fill="#824F3C"/>
<rect opacity="0.4" width="45.5518" height="8.67653" rx="4.33827" transform="matrix(-0.981627 -0.190809 -0.190809 0.981627 185.75 8.69176)" fill="#C9AF85"/>
<rect opacity="0.4" x="185.75" y="262.306" width="45.5518" height="8.67653" rx="4.33827" transform="rotate(169 185.75 262.306)" fill="#C9AF85"/>
</svg>
