<svg width="32" height="32" viewBox="0 0 32 32" fill="none" xmlns="http://www.w3.org/2000/svg">
<path d="M31.0933 5.46666C30.3333 4.53333 29.2 3.99999 28 3.99999H9.65332L9.59999 3.53333C9.35999 1.52 7.65332 0 5.62666 0H3.99999C3.26666 0 2.66666 0.599999 2.66666 1.33333C2.66666 2.06666 3.26666 2.66666 3.99999 2.66666H5.62666C6.30666 2.66666 6.86666 3.17333 6.94666 3.84L8.78666 19.44C9.18666 22.8 12.0267 25.3333 15.4133 25.3333H26.6666C27.4 25.3333 28 24.7333 28 24C28 23.2666 27.4 22.6666 26.6666 22.6666H15.4133C13.6933 22.6666 12.2133 21.56 11.6533 20H24.2133C27.3866 20 30.1333 17.7466 30.7466 14.64L31.92 8.78666C32.16 7.61332 31.8533 6.39999 31.0933 5.46666ZM14.6666 29.3333C14.6666 30.8 13.4666 32 12 32C10.5333 32 9.33332 30.8 9.33332 29.3333C9.33332 27.8666 10.5333 26.6666 12 26.6666C13.4666 26.6666 14.6666 27.8666 14.6666 29.3333ZM26.6666 29.3333C26.6666 30.8 25.4666 32 24 32C22.5333 32 21.3333 30.8 21.3333 29.3333C21.3333 27.8666 22.5333 26.6666 24 26.6666C25.4666 26.6666 26.6666 27.8666 26.6666 29.3333ZM0 7.99999C0 7.26666 0.599999 6.66666 1.33333 6.66666H3.38666C4.11999 6.66666 4.71999 7.26666 4.71999 7.99999C4.71999 8.73332 4.11999 9.33332 3.38666 9.33332H1.33333C0.599999 9.33332 0 8.73332 0 7.99999ZM0 13.3333C0 12.6 0.599999 12 1.33333 12H3.99999C4.73333 12 5.33333 12.6 5.33333 13.3333C5.33333 14.0666 4.73333 14.6666 3.99999 14.6666H1.33333C0.599999 14.6666 0 14.0666 0 13.3333ZM6.66666 18.6666C6.66666 19.4 6.06666 20 5.33333 20H1.33333C0.599999 20 0 19.4 0 18.6666C0 17.9333 0.599999 17.3333 1.33333 17.3333H5.33333C6.06666 17.3333 6.66666 17.9333 6.66666 18.6666Z" fill="#3D241B"/>
</svg>
