<svg width="32" height="32" viewBox="0 0 32 32" fill="none" xmlns="http://www.w3.org/2000/svg">
<path d="M19.3417 27.911C18.1084 29.1896 16.7432 30.2908 15.5994 31.1254C14.8088 31.7027 13.8649 32 12.9049 32C12.361 32 11.813 31.9053 11.2838 31.7107C7.86143 30.4601 2.02465 27.7057 1.38738 23.3208L0.0555038 14.1644C-0.289797 11.7846 1.1274 9.4728 3.42585 8.66621C4.77639 8.19293 6.11759 7.8063 7.43613 7.51033L6.61221 13.1778C6.54822 13.6164 6.52022 14.0497 6.52555 14.4777C5.57231 14.6243 4.88171 15.5496 4.62307 16.7628C4.53641 17.1681 4.88171 17.5347 5.291 17.476L6.99618 17.2321C7.45213 18.6199 8.20806 19.9358 9.1373 21.1584C7.68144 21.889 6.64154 23.2795 6.17759 24.9207C6.00427 25.5353 6.70287 26.0259 7.23349 25.6713C8.72134 24.6767 10.0999 24.0861 11.5837 23.8528C12.625 24.838 13.7275 25.7273 14.7901 26.5045C16.0526 27.4284 17.5472 27.9177 19.111 27.9177C19.1883 27.9177 19.2643 27.9164 19.3417 27.9137V27.911ZM15.6993 9.10084L18.9897 9.57146C19.399 9.63012 19.7443 9.26349 19.6576 8.8582C19.3977 7.63965 18.7017 6.7104 17.7392 6.57041C16.7752 6.43176 15.8487 7.13036 15.2567 8.22892C15.0607 8.59289 15.2901 9.04218 15.6993 9.10084ZM31.9471 7.41567L30.6139 16.5721C29.9753 20.957 24.1412 23.7101 20.7189 24.962C20.1949 25.154 19.651 25.2473 19.1097 25.2473C18.1351 25.2473 17.1725 24.942 16.3633 24.3487C13.4329 22.2036 8.61069 17.9507 9.24929 13.5591L10.5812 4.40262C10.9265 2.02951 12.9409 0.204354 15.3714 0.0630339C17.7165 -0.0702868 19.9709 0.0070392 22.0734 0.303011C24.1759 0.598983 26.3637 1.14026 28.5755 1.91619C30.8752 2.72278 32.2924 5.03589 31.9471 7.41567ZM23.9679 13.9924C20.9535 14.6923 18.6671 14.367 15.97 12.8538C15.3954 12.5312 14.7114 13.0898 14.9421 13.7071C15.6847 15.6949 17.2832 17.2227 19.379 17.5187C21.4748 17.816 23.4413 16.7974 24.7118 15.0936C25.1038 14.5683 24.6065 13.8444 23.9679 13.9924ZM25.8797 9.74611C25.6197 8.52756 24.9238 7.59832 23.9612 7.45833C22.9973 7.31968 22.0707 8.01828 21.4788 9.11684C21.2828 9.4808 21.5108 9.9301 21.9201 9.98876L25.2104 10.4594C25.6197 10.518 25.9664 10.1514 25.8797 9.74611Z" fill="#3D241B"/>
</svg>
