<svg width="32" height="32" viewBox="0 0 32 32" fill="none" xmlns="http://www.w3.org/2000/svg">
<path d="M30.6267 8.33467C29.7773 7.86267 28.74 7.89333 27.8267 8.46933L22.84 14V10.6667C22.84 9.69733 22.3133 8.804 21.4667 8.33467C20.6173 7.86267 19.5787 7.89333 18.6667 8.46933L13.3333 14.0027V24.0013C13.3333 24.7373 12.7373 25.3347 12 25.3347C11.2627 25.3347 10.6667 24.7373 10.6667 24.0013V2.66667C11.404 2.66667 12 2.06933 12 1.33333C12 0.597333 11.404 0 10.6667 0H1.33333C0.596 0 0 0.597333 0 1.33333C0 2.06933 0.596 2.66667 1.33333 2.66667V25.3333C1.33333 29.0093 4.324 32 8 32H25.3333C29.0093 32 32 29.0093 32 25.3333V10.6667C32 9.69733 31.4733 8.804 30.6267 8.33467ZM21.3333 24C21.3333 24.736 20.736 25.3333 20 25.3333H18.6667C17.9307 25.3333 17.3333 24.736 17.3333 24V22.6667C17.3333 21.9307 17.9307 21.3333 18.6667 21.3333H20C20.736 21.3333 21.3333 21.9307 21.3333 22.6667V24ZM28 24C28 24.736 27.4027 25.3333 26.6667 25.3333H25.3333C24.5973 25.3333 24 24.736 24 24V22.6667C24 21.9307 24.5973 21.3333 25.3333 21.3333H26.6667C27.4027 21.3333 28 21.9307 28 22.6667V24Z" fill="#3D241B"/>
</svg>
