<svg width="32" height="32" viewBox="0 0 32 32" fill="none" xmlns="http://www.w3.org/2000/svg">
<path d="M6.00025 14.6676H1.33339C0.596025 14.6676 0 14.0702 0 13.3342C0 12.5982 0.596025 12.0008 1.33339 12.0008H6.00025C6.73761 12.0008 7.33364 12.5982 7.33364 13.3342C7.33364 14.0702 6.73761 14.6676 6.00025 14.6676ZM13.5392 2.6671C13.5392 1.93107 12.9432 1.33371 12.2058 1.33371H1.33339C0.596025 1.33371 0 1.93107 0 2.6671C0 3.40313 0.596025 4.00049 1.33339 4.00049H12.2058C12.9432 4.00049 13.5392 3.40313 13.5392 2.6671ZM10.8725 8.00065C10.8725 7.26462 10.2764 6.66726 9.53906 6.66726H1.33339C0.596025 6.66726 0 7.26462 0 8.00065C0 8.73668 0.596025 9.33404 1.33339 9.33404H9.53906C10.2764 9.33404 10.8725 8.73668 10.8725 8.00065ZM20.0768 26.6681C20.0315 26.8841 19.9995 27.1054 19.9995 27.3348C19.9995 29.1762 21.4916 30.6683 23.333 30.6683C25.1744 30.6683 26.6664 29.1762 26.6664 27.3348C26.6664 27.1054 26.6344 26.8841 26.5891 26.6681H20.0755H20.0768ZM19.9995 24.0013V8.00065C19.9995 5.32188 18.4194 3.01245 16.1393 1.9524C16.182 2.18441 16.2047 2.42309 16.2047 2.6671C16.2047 4.50984 14.9526 6.06324 13.2552 6.52593C13.4366 6.98194 13.5379 7.4793 13.5379 8.00065C13.5379 10.1301 11.8658 11.8741 9.76707 11.9942C9.91641 12.4128 9.99908 12.8649 9.99908 13.3342C9.99908 15.5396 8.20434 17.3344 5.99892 17.3344H1.33339C0.865369 17.3344 0.417351 17.253 0 17.105V18.6678C0 21.6132 2.3881 24.0013 5.33356 24.0013H20.0008H19.9995ZM5.40956 26.6681C5.36422 26.8841 5.33222 27.1054 5.33222 27.3348C5.33222 29.1762 6.82428 30.6683 8.66569 30.6683C10.5071 30.6683 11.9992 29.1762 11.9992 27.3348C11.9992 27.1054 11.9672 26.8841 11.9218 26.6681H5.40956ZM22.6663 24.0013H26.6664C29.6119 24.0013 32 21.6132 32 18.6678V17.3344H22.6663V24.0013ZM25.3331 6.66726H22.6663V14.6676H32V13.3342C32 9.65272 29.0145 6.66726 25.3331 6.66726Z" fill="#3D241B"/>
</svg>
