<svg width="33" height="33" viewBox="0 0 33 33" fill="none" xmlns="http://www.w3.org/2000/svg">
<path d="M21.5397 1.98203C20.2603 0.704 18.5612 0 16.7538 0C14.9465 0 13.2447 0.704 11.968 1.98203C10.69 3.26006 9.98462 4.96049 9.98462 6.76923C9.98462 8.57797 10.6927 10.2825 11.9883 11.5767L14.501 14.034C15.1225 14.6418 15.9375 14.9465 16.7538 14.9465C17.5702 14.9465 18.3852 14.6418 19.0053 14.0353L21.5397 11.5564C22.8177 10.2784 23.5231 8.57797 23.5231 6.76923C23.5231 4.96049 22.8177 3.26006 21.5397 1.98203ZM16.7538 8.8C15.6329 8.8 14.7231 7.89022 14.7231 6.76923C14.7231 5.64825 15.6329 4.73846 16.7538 4.73846C17.8748 4.73846 18.7846 5.64825 18.7846 6.76923C18.7846 7.89022 17.8748 8.8 16.7538 8.8ZM31.6462 8.12308C30.8975 8.12308 30.2923 8.7296 30.2923 9.47692H25.8382C25.3954 10.9702 24.5872 12.339 23.4554 13.4708L20.8993 15.9713C20.8181 16.0512 20.722 16.1081 20.6367 16.1825L25.3223 20.8682C25.826 21.3732 26.5246 21.6615 27.2367 21.6615H28.9398C29.6885 21.6615 30.2937 22.2681 30.2937 23.0154C30.2937 23.7627 29.6885 24.3692 28.9398 24.3692H27.2367C25.8097 24.3692 24.4153 23.7911 23.408 22.7825L18.109 17.4836C17.669 17.5851 17.2196 17.6542 16.7552 17.6542C15.1915 17.6542 13.7185 17.0558 12.6084 15.9686L10.097 13.5127C8.9408 12.3593 8.12172 10.977 7.6736 9.47692H3.21538C3.21538 8.7296 2.60886 8.12308 1.86154 8.12308C1.11422 8.12308 0.507692 8.7296 0.507692 9.47692V31.1385C0.507692 31.8858 1.11422 32.4923 1.86154 32.4923C2.60886 32.4923 3.21538 31.8858 3.21538 31.1385H30.2923C30.2923 31.8858 30.8975 32.4923 31.6462 32.4923C32.3948 32.4923 33 31.8858 33 31.1385V9.47692C33 8.7296 32.3948 8.12308 31.6462 8.12308ZM14.0462 27.0769C14.0462 27.8242 13.4396 28.4308 12.6923 28.4308C11.945 28.4308 11.3385 27.8242 11.3385 27.0769V26.0521C11.3385 25.3291 11.0569 24.6481 10.5451 24.1364L7.50978 21.101C6.99803 20.5893 6.3184 20.3077 5.59409 20.3077H4.56923C3.82191 20.3077 3.21538 19.7012 3.21538 18.9538C3.21538 18.2065 3.82191 17.6 4.56923 17.6H5.59409C7.04 17.6 8.40062 18.1632 9.42412 19.1867L12.4594 22.222C13.483 23.2442 14.0462 24.6048 14.0462 26.0521V27.0769Z" fill="#3D241B"/>
</svg>
