<svg width="32" height="32" viewBox="0 0 32 32" fill="none" xmlns="http://www.w3.org/2000/svg">
<path d="M5.14013 11.9999C4.31613 11.9999 3.67612 11.2559 3.82146 10.4453C4.30012 7.77724 5.62946 5.29723 7.62814 3.42389C10.2081 1.00388 13.5775 -0.202787 17.1295 0.0278804C23.8242 0.459882 29.0536 6.2879 28.9549 13.2506C28.9016 17.0079 25.7695 20.0013 22.0109 20.0013H18.1015C17.6215 20.4626 16.9735 20.7493 16.2562 20.7493C14.7828 20.7493 13.5895 19.556 13.5895 18.0826C13.5895 16.6093 14.7828 15.4159 16.2562 15.4159C17.4668 15.4159 18.4775 16.2279 18.8028 17.3346H22.0109C24.3255 17.3346 26.2629 15.4906 26.2882 13.1773C26.3495 7.64924 22.2282 3.03189 16.9575 2.69056C14.1588 2.51722 11.4895 3.46123 9.45081 5.3719C7.83881 6.88257 6.80013 8.81725 6.43613 10.9426C6.32947 11.5639 5.76946 12.0026 5.14013 12.0026V11.9999ZM16.2895 22.6666C11.3628 22.6666 7.10014 25.7226 5.6828 30.2693C5.55613 30.6747 5.62946 31.116 5.88146 31.4573C6.13347 31.7987 6.53213 32 6.95614 32H25.6229C26.0469 32 26.4455 31.7987 26.6975 31.4573C26.9495 31.116 27.0229 30.6747 26.8962 30.2693C25.4789 25.7226 21.2162 22.6666 16.2895 22.6666ZM20.2015 14.6666H23.3402C23.5202 14.0306 23.6229 13.3613 23.6229 12.6666C23.6229 8.61591 20.3402 5.33323 16.2895 5.33323C12.2388 5.33323 8.95614 8.61591 8.95614 12.6666C8.95614 14.6546 9.75081 16.4546 11.0348 17.7759C11.1962 15.0213 13.4602 12.8306 16.2562 12.8306C17.8442 12.8306 19.2442 13.5519 20.2029 14.6666H20.2015Z" fill="#3D241B"/>
</svg>
