<svg width="32" height="32" viewBox="0 0 32 32" fill="none" xmlns="http://www.w3.org/2000/svg">
<path d="M10.6667 16C6.25467 16 2.66667 12.412 2.66667 8C2.66667 3.588 6.25467 0 10.6667 0C15.0787 0 18.6667 3.588 18.6667 8C18.6667 12.412 15.0787 16 10.6667 16ZM9.33333 28V20C9.33333 19.568 9.38267 19.1493 9.46133 18.74C4.14667 19.3413 0 23.86 0 29.3333V30.6667C0 31.4027 0.597333 32 1.33333 32H10.6667C10.6773 32 10.6853 31.9947 10.696 31.9947C9.852 30.8787 9.33333 29.504 9.33333 28ZM26 23.2H24.8V20.8H26C26.6613 20.8 27.2 21.3387 27.2 22C27.2 22.6613 26.6613 23.2 26 23.2ZM32 20V28C32 30.2093 30.2093 32 28 32H16C13.7907 32 12 30.2093 12 28V20C12 17.7907 13.7907 16 16 16H28C30.2093 16 32 17.7907 32 20ZM20.2667 18.6667C19.6773 18.6667 19.2 19.144 19.2 19.7333V22.9267H16.8V19.7333C16.8 19.144 16.3227 18.6667 15.7333 18.6667C15.144 18.6667 14.6667 19.144 14.6667 19.7333V28.2667C14.6667 28.856 15.144 29.3333 15.7333 29.3333C16.3227 29.3333 16.8 28.856 16.8 28.2667V25.06H19.2V28.2667C19.2 28.856 19.6773 29.3333 20.2667 29.3333C20.856 29.3333 21.3333 28.856 21.3333 28.2667V19.7333C21.3333 19.144 20.856 18.6667 20.2667 18.6667ZM27.9107 24.7253C28.8747 24.048 29.468 22.8773 29.3067 21.576C29.096 19.8773 27.5333 18.6667 25.8227 18.6667H23.7333C23.144 18.6667 22.6667 19.144 22.6667 19.7333V28.2667C22.6667 28.856 23.144 29.3333 23.7333 29.3333C24.3227 29.3333 24.8 28.856 24.8 28.2667V25.3333H25.8453L26.7853 28.564C26.9173 29.02 27.3347 29.3333 27.8093 29.3333H27.8933C28.6093 29.3333 29.1227 28.6413 28.9133 27.956L27.928 24.716C27.9587 24.6933 27.96 24.6947 27.984 24.6773C27.9587 24.6933 27.9427 24.7053 27.9107 24.724V24.7253Z" fill="#3D241B"/>
</svg>
