<svg width="32" height="33" viewBox="0 0 32 33" fill="none" xmlns="http://www.w3.org/2000/svg">
<path d="M12 12.1145H20V20.1145H12V12.1145ZM29.3333 14.7811V17.4478H30.6667C31.4 17.4478 32 18.0478 32 18.7811C32 19.5145 31.4 20.1145 30.6667 20.1145H29.3333V22.7811H30.6667C31.4 22.7811 32 23.3811 32 24.1145C32 24.8478 31.4 25.4478 30.6667 25.4478H28.7733C28.1067 26.9811 26.8667 28.2078 25.3333 28.8878V30.7811C25.3333 31.5145 24.7333 32.1145 24 32.1145C23.2667 32.1145 22.6667 31.5145 22.6667 30.7811V29.4478H20V30.7811C20 31.5145 19.4 32.1145 18.6667 32.1145C17.9333 32.1145 17.3333 31.5145 17.3333 30.7811V29.4478H14.6667V30.7811C14.6667 31.5145 14.0667 32.1145 13.3333 32.1145C12.6 32.1145 12 31.5145 12 30.7811V29.4478H9.33333V30.7811C9.33333 31.5145 8.73333 32.1145 8 32.1145C7.26667 32.1145 6.66667 31.5145 6.66667 30.7811V28.8878C5.13333 28.2211 3.90667 26.9811 3.22667 25.4478H1.33333C0.6 25.4478 0 24.8478 0 24.1145C0 23.3811 0.6 22.7811 1.33333 22.7811H2.66667V20.1145H1.33333C0.6 20.1145 0 19.5145 0 18.7811C0 18.0478 0.6 17.4478 1.33333 17.4478H2.66667V14.7811H1.33333C0.6 14.7811 0 14.1811 0 13.4478C0 12.7145 0.6 12.1145 1.33333 12.1145H2.66667V9.44781H1.33333C0.6 9.44781 0 8.84781 0 8.11447C0 7.38114 0.6 6.78114 1.33333 6.78114H3.22667C3.89333 5.24781 5.13333 4.02114 6.66667 3.34114V1.4478C6.66667 0.714471 7.26667 0.114471 8 0.114471C8.73333 0.114471 9.33333 0.714471 9.33333 1.4478V2.78114H12V1.4478C12 0.714471 12.6 0.114471 13.3333 0.114471C14.0667 0.114471 14.6667 0.714471 14.6667 1.4478V2.78114H17.3333V1.4478C17.3333 0.714471 17.9333 0.114471 18.6667 0.114471C19.4 0.114471 20 0.714471 20 1.4478V2.78114H22.6667V1.4478C22.6667 0.714471 23.2667 0.114471 24 0.114471C24.7333 0.114471 25.3333 0.714471 25.3333 1.4478V3.34114C26.8667 4.0078 28.0933 5.24781 28.7733 6.78114H30.6667C31.4 6.78114 32 7.38114 32 8.11447C32 8.84781 31.4 9.44781 30.6667 9.44781H29.3333V12.1145H30.6667C31.4 12.1145 32 12.7145 32 13.4478C32 14.1811 31.4 14.7811 30.6667 14.7811H29.3333ZM22.6667 21.4478V10.7811C22.6667 10.0478 22.0667 9.44781 21.3333 9.44781H10.6667C9.93333 9.44781 9.33333 10.0478 9.33333 10.7811V21.4478C9.33333 22.1811 9.93333 22.7811 10.6667 22.7811H21.3333C22.0667 22.7811 22.6667 22.1811 22.6667 21.4478Z" fill="#3D241B"/>
</svg>
