<svg width="32" height="32" viewBox="0 0 32 32" fill="none" xmlns="http://www.w3.org/2000/svg">
<path d="M28.428 25.3341L27.88 26.1168C25.884 28.9688 22.6227 30.6675 19.1413 30.6675H12.86C9.37867 30.6675 6.11733 28.9688 4.12133 26.1168L3.57333 25.3341H28.428ZM30.6667 20.0008V16.7355C30.6667 11.2141 27.4147 6.26214 22.4987 3.87947C22.6027 4.3448 22.6667 4.82614 22.6667 5.32214V14.6661C22.6667 15.4021 22.0693 15.9995 21.3333 15.9995C20.5973 15.9995 20 15.4021 20 14.6661V5.48614C20 3.5528 18.696 1.77814 16.7987 1.41014C14.244 0.914137 12 2.86214 12 5.3208V14.6648C12 15.4008 11.4027 15.9981 10.6667 15.9981C9.93067 15.9981 9.33333 15.4008 9.33333 14.6648V5.32347C9.33333 4.82747 9.39733 4.34614 9.50133 3.8808C4.58533 6.26347 1.33333 11.2141 1.33333 16.7355V20.0008C0.597333 20.0008 0 20.5981 0 21.3341C0 22.0701 0.597333 22.6675 1.33333 22.6675H30.6667C31.4027 22.6675 32 22.0701 32 21.3341C32 20.5981 31.4027 20.0008 30.6667 20.0008Z" fill="#3D241B"/>
</svg>
