<svg width="32" height="32" viewBox="0 0 32 32" fill="none" xmlns="http://www.w3.org/2000/svg">
<path d="M24.6677 16.1145C23.7823 16.1145 22.9383 16.2798 22.1516 16.5692L20.8115 14.3024C22.3543 12.957 23.3343 10.9836 23.3343 8.78084C23.3343 4.73667 20.0435 1.4472 16.0007 1.4472C11.9578 1.4472 8.66703 4.73667 8.66703 8.78084C8.66703 10.9836 9.64707 12.957 11.1898 14.3024L9.84974 16.5692C9.06304 16.2812 8.21901 16.1145 7.33364 16.1145C3.2908 16.1145 0 19.404 0 23.4481C0 27.4923 3.2908 30.7818 7.33364 30.7818C10.9205 30.7818 13.9099 28.1896 14.5393 24.7815H17.4607C18.0901 28.1896 21.0795 30.7818 24.6664 30.7818C28.7092 30.7818 32 27.4923 32 23.4481C32 19.404 28.7105 16.1145 24.6677 16.1145ZM24.693 18.7813C25.7971 18.7813 26.6931 19.6773 26.6931 20.7813C26.6931 21.8854 25.7971 22.7814 24.693 22.7814C23.589 22.7814 22.6929 21.8854 22.6929 20.7813C22.6929 19.6773 23.589 18.7813 24.693 18.7813ZM16.026 4.11398C17.13 4.11398 18.0261 5.01002 18.0261 6.11407C18.0261 7.21811 17.13 8.11415 16.026 8.11415C14.922 8.11415 14.0259 7.21811 14.0259 6.11407C14.0259 5.01002 14.922 4.11398 16.026 4.11398ZM16.0007 9.44754C17.5314 9.44754 19.0741 10.6036 19.2901 12.089C18.4461 12.9277 17.2847 13.4477 16.0007 13.4477C14.7166 13.4477 13.5539 12.9277 12.7112 12.089C12.9272 10.6036 14.4699 9.44754 16.0007 9.44754ZM13.4846 15.6598C14.2713 15.9478 15.1153 16.1145 16.0007 16.1145C16.886 16.1145 17.7301 15.9491 18.5168 15.6598L19.8568 17.9266C18.6341 18.9933 17.7674 20.456 17.4621 22.1147H14.5406C14.2339 20.456 13.3686 18.9933 12.1458 17.9266L13.4859 15.6598H13.4846ZM7.35897 18.7813C8.46302 18.7813 9.35906 19.6773 9.35906 20.7813C9.35906 21.8854 8.46302 22.7814 7.35897 22.7814C6.25493 22.7814 5.35889 21.8854 5.35889 20.7813C5.35889 19.6773 6.25493 18.7813 7.35897 18.7813ZM7.33364 28.115C6.04958 28.115 4.88687 27.595 4.04417 26.7563C4.26018 25.2709 5.80291 24.1148 7.33364 24.1148C8.86437 24.1148 10.4071 25.2709 10.6231 26.7563C9.77907 27.595 8.61769 28.115 7.33364 28.115ZM24.6677 28.115C23.3836 28.115 22.2209 27.595 21.3782 26.7563C21.5942 25.2709 23.137 24.1148 24.6677 24.1148C26.1984 24.1148 27.7412 25.2709 27.9572 26.7563C27.1131 27.595 25.9517 28.115 24.6677 28.115Z" fill="#3D241B"/>
</svg>
