<svg width="24" height="24" viewBox="0 0 24 24" fill="none" xmlns="http://www.w3.org/2000/svg">
<path d="M11 1.18101H13C13.7332 1.18101 14.4366 1.47209 14.9551 1.99058C15.4736 2.50906 15.7646 3.21241 15.7646 3.94566V5.18101H19C20.2632 5.1826 21.474 5.68525 22.3672 6.57847C23.2604 7.47168 23.7631 8.68247 23.7646 9.94566V17.9457L23.7588 18.182C23.699 19.3591 23.2045 20.4755 22.3672 21.3128C21.474 22.2061 20.2632 22.7087 19 22.7103H5C3.73681 22.7087 2.52603 22.2061 1.63281 21.3128C0.739598 20.4196 0.236939 19.2088 0.235352 17.9457V9.94566C0.236939 8.68247 0.739598 7.47168 1.63281 6.57847C2.52603 5.68525 3.73681 5.1826 5 5.18101H8.23535V3.94566C8.23535 3.21241 8.52644 2.50906 9.04492 1.99058C9.5634 1.47209 10.2668 1.18101 11 1.18101ZM12 9.7103C11.6724 9.7103 11.3586 9.84095 11.127 10.0726C10.8953 10.3043 10.7646 10.618 10.7646 10.9457V12.7103H9C8.67238 12.7103 8.35862 12.8409 8.12695 13.0726C7.89529 13.3043 7.76465 13.618 7.76465 13.9457C7.76465 14.2733 7.89529 14.587 8.12695 14.8187C8.35862 15.0504 8.67238 15.181 9 15.181H10.7646V16.9457C10.7646 17.2733 10.8953 17.587 11.127 17.8187C11.3586 18.0504 11.6724 18.181 12 18.181C12.3276 18.181 12.6414 18.0504 12.873 17.8187C13.1047 17.587 13.2354 17.2733 13.2354 16.9457V15.181H15C15.3276 15.181 15.6414 15.0504 15.873 14.8187C16.1047 14.587 16.2354 14.2733 16.2354 13.9457C16.2354 13.618 16.1047 13.3043 15.873 13.0726C15.6414 12.8409 15.3276 12.7103 15 12.7103H13.2354V10.9457C13.2354 10.618 13.1047 10.3043 12.873 10.0726C12.6414 9.84095 12.3276 9.7103 12 9.7103ZM11 2.7103C10.6724 2.7103 10.3586 2.84095 10.127 3.07261C9.89529 3.30427 9.76465 3.61804 9.76465 3.94566V5.18101H14.2354V3.94566C14.2354 3.61804 14.1047 3.30427 13.873 3.07261C13.6414 2.84095 13.3276 2.7103 13 2.7103H11Z" fill="#4E3117" stroke="url(#paint0_linear_1418_2670)" stroke-width="0.470588"/>
<defs>
<linearGradient id="paint0_linear_1418_2670" x1="12.0438" y1="22.9457" x2="11.1428" y2="0.979022" gradientUnits="userSpaceOnUse">
<stop stop-color="#FEE69B"/>
<stop offset="1" stop-color="#FEE69B" stop-opacity="0"/>
</linearGradient>
</defs>
</svg>
