<svg width="32" height="32" viewBox="0 0 32 32" fill="none" xmlns="http://www.w3.org/2000/svg">
<path d="M25.3333 6.66927H21.3333V5.33594C21.3333 4.27507 20.9119 3.25766 20.1618 2.50751C19.4116 1.75736 18.3942 1.33594 17.3333 1.33594H14.6667C13.6058 1.33594 12.5884 1.75736 11.8382 2.50751C11.0881 3.25766 10.6667 4.27507 10.6667 5.33594V6.66927H6.66667C4.89921 6.67139 3.20474 7.37445 1.95496 8.62423C0.705176 9.87401 0.00211714 11.5685 0 13.3359L0 24.0026C0.00211714 25.7701 0.705176 27.4645 1.95496 28.7143C3.20474 29.9641 4.89921 30.6672 6.66667 30.6693H25.3333C27.1008 30.6672 28.7953 29.9641 30.045 28.7143C31.2948 27.4645 31.9979 25.7701 32 24.0026V13.3359C31.9979 11.5685 31.2948 9.87401 30.045 8.62423C28.7953 7.37445 27.1008 6.67139 25.3333 6.66927ZM13.3333 5.33594C13.3333 4.98232 13.4738 4.64318 13.7239 4.39313C13.9739 4.14308 14.313 4.0026 14.6667 4.0026H17.3333C17.687 4.0026 18.0261 4.14308 18.2761 4.39313C18.5262 4.64318 18.6667 4.98232 18.6667 5.33594V6.66927H13.3333V5.33594ZM20 20.0026H17.3333V22.6693C17.3333 23.0229 17.1929 23.362 16.9428 23.6121C16.6928 23.8621 16.3536 24.0026 16 24.0026C15.6464 24.0026 15.3072 23.8621 15.0572 23.6121C14.8071 23.362 14.6667 23.0229 14.6667 22.6693V20.0026H12C11.6464 20.0026 11.3072 19.8621 11.0572 19.6121C10.8071 19.362 10.6667 19.0229 10.6667 18.6693C10.6667 18.3156 10.8071 17.9765 11.0572 17.7265C11.3072 17.4764 11.6464 17.3359 12 17.3359H14.6667V14.6693C14.6667 14.3156 14.8071 13.9765 15.0572 13.7265C15.3072 13.4764 15.6464 13.3359 16 13.3359C16.3536 13.3359 16.6928 13.4764 16.9428 13.7265C17.1929 13.9765 17.3333 14.3156 17.3333 14.6693V17.3359H20C20.3536 17.3359 20.6928 17.4764 20.9428 17.7265C21.1929 17.9765 21.3333 18.3156 21.3333 18.6693C21.3333 19.0229 21.1929 19.362 20.9428 19.6121C20.6928 19.8621 20.3536 20.0026 20 20.0026Z" fill="#3D241B"/>
</svg>
