<svg width="32" height="32" viewBox="0 0 32 32" fill="none" xmlns="http://www.w3.org/2000/svg">
<path d="M32 11.0735V26.4336C32 26.7872 31.8595 27.1263 31.6095 27.3764C31.3594 27.6264 31.0203 27.7669 30.6667 27.7669C30.313 27.7669 29.9739 27.6264 29.7238 27.3764C29.4738 27.1263 29.3333 26.7872 29.3333 26.4336V15.4362L19.4666 20.1509C18.4263 20.765 17.2386 21.0848 16.0306 21.0762C14.7637 21.0782 13.5199 20.7377 12.4306 20.0909L2.59056 15.4069C1.81706 14.9909 1.16897 14.3756 0.713512 13.6247C0.258059 12.8738 0.0118444 12.0147 0.000416755 11.1365C-0.0110109 10.2583 0.212765 9.39312 0.648524 8.63061C1.08428 7.86811 1.71615 7.2361 2.47856 6.80018C2.51456 6.77884 2.55322 6.75884 2.59056 6.74018L12.5333 1.99616C13.6067 1.3797 14.8249 1.06033 16.0627 1.07087C17.3005 1.08142 18.5132 1.42151 19.576 2.05616L29.4093 6.74018C30.1852 7.16949 30.8337 7.79657 31.2887 8.55769C31.7437 9.3188 31.9891 10.1868 32 11.0735ZM16.0293 23.7402C14.3234 23.744 12.6468 23.2969 11.1693 22.4442L5.33323 19.6589V23.2589C5.33403 24.6823 5.78972 26.0681 6.63381 27.2142C7.4779 28.3603 8.66619 29.2066 10.0253 29.6296C11.967 30.1871 13.9799 30.458 15.9999 30.4336C18.0203 30.4562 20.0331 30.1836 21.9746 29.6243C23.3337 29.2013 24.522 28.355 25.3661 27.2089C26.2102 26.0628 26.6659 24.6769 26.6666 23.2536V19.6656L20.7213 22.5056C19.2941 23.3255 17.6752 23.7524 16.0293 23.7429V23.7402Z" fill="#3D241B"/>
</svg>
