<svg width="24" height="25" viewBox="0 0 24 25" fill="none" xmlns="http://www.w3.org/2000/svg">
<path d="M4.88281 18.2354H21.6475V19C21.6475 21.6311 19.5139 23.7646 16.8828 23.7646H4.88281C3.35576 23.7646 2.11816 22.5271 2.11816 21C2.11816 19.4729 3.35576 18.2354 4.88281 18.2354ZM5.64746 15.7646H4.88281C4.71907 15.7646 4.55508 15.777 4.39258 15.8018L4.23047 15.8301C3.47776 15.9229 2.75787 16.1806 2.11816 16.5801V5C2.11816 2.83305 3.57756 0.951924 5.64746 0.397461V15.7646ZM16.8828 0.235352C19.5139 0.235352 21.6475 2.36895 21.6475 5V15.7646H8.11816V0.235352H16.8828ZM14.8828 4.76465C14.1997 4.76465 13.6475 5.3182 13.6475 6V7.76465H11.8828C11.1997 7.76465 10.6475 8.3182 10.6475 9C10.6475 9.6818 11.1997 10.2354 11.8828 10.2354H13.6475V12C13.6475 12.6818 14.1997 13.2354 14.8828 13.2354C15.5659 13.2354 16.1182 12.6818 16.1182 12V10.2354H17.8828C18.5659 10.2354 19.1182 9.6818 19.1182 9C19.1182 8.3182 18.5659 7.76465 17.8828 7.76465H16.1182V6C16.1182 5.3182 15.5659 4.76465 14.8828 4.76465Z" fill="#4E3117" stroke="url(#paint0_linear_1418_2680)" stroke-width="0.470588"/>
<defs>
<linearGradient id="paint0_linear_1418_2680" x1="11.9193" y1="24" x2="10.634" y2="0.0650966" gradientUnits="userSpaceOnUse">
<stop stop-color="#FEE69B"/>
<stop offset="1" stop-color="#FEE69B" stop-opacity="0"/>
</linearGradient>
</defs>
</svg>
