<svg width="20" height="20" viewBox="0 0 20 20" fill="none" xmlns="http://www.w3.org/2000/svg">
<mask id="mask0_3381_2351" style="mask-type:luminance" maskUnits="userSpaceOnUse" x="0" y="0" width="20" height="20">
<path d="M10.0013 18.3334C11.0959 18.3348 12.1799 18.1198 13.1911 17.701C14.2023 17.2821 15.1208 16.6675 15.8938 15.8926C16.6687 15.1196 17.2833 14.2011 17.7022 13.1899C18.1211 12.1787 18.336 11.0946 18.3346 10.0001C18.336 8.90554 18.1211 7.82152 17.7022 6.81029C17.2833 5.79907 16.6687 4.88058 15.8938 4.10759C15.1208 3.33265 14.2023 2.7181 13.1911 2.29922C12.1799 1.88034 11.0959 1.6654 10.0013 1.66675C8.90676 1.6654 7.82274 1.88034 6.81151 2.29922C5.80029 2.7181 4.8818 3.33265 4.10881 4.10759C3.33388 4.88058 2.71932 5.79907 2.30044 6.81029C1.88156 7.82152 1.66663 8.90554 1.66798 10.0001C1.66663 11.0946 1.88156 12.1787 2.30044 13.1899C2.71932 14.2011 3.33388 15.1196 4.10881 15.8926C4.8818 16.6675 5.80029 17.2821 6.81151 17.701C7.82274 18.1198 8.90676 18.3348 10.0013 18.3334Z" fill="white" stroke="white" stroke-width="1.66667" stroke-linejoin="round"/>
<path d="M6.66797 10L9.16797 12.5L14.168 7.5" stroke="black" stroke-width="1.66667" stroke-linecap="round" stroke-linejoin="round"/>
</mask>
<g mask="url(#mask0_3381_2351)">
<path d="M0 0H20V20H0V0Z" fill="#FAECD2"/>
</g>
</svg>
