<svg width="12" height="12" viewBox="0 0 12 12" fill="none" xmlns="http://www.w3.org/2000/svg">
<path d="M10.5001 10.5L8.3286 8.3285M8.3286 8.3285C8.70005 7.95706 8.99469 7.51609 9.19572 7.03077C9.39674 6.54546 9.50021 6.0253 9.50021 5.5C9.50021 4.9747 9.39674 4.45454 9.19572 3.96923C8.99469 3.48391 8.70005 3.04294 8.3286 2.6715C7.95716 2.30006 7.51619 2.00541 7.03088 1.80439C6.54556 1.60336 6.0254 1.4999 5.5001 1.4999C4.9748 1.4999 4.45464 1.60336 3.96933 1.80439C3.48401 2.00541 3.04305 2.30006 2.6716 2.6715C1.92144 3.42166 1.5 4.43911 1.5 5.5C1.5 6.56089 1.92144 7.57833 2.6716 8.3285C3.42177 9.07866 4.43921 9.5001 5.5001 9.5001C6.561 9.5001 7.57844 9.07866 8.3286 8.3285Z" stroke="white" stroke-width="1.25" stroke-linecap="round" stroke-linejoin="round"/>
</svg>
