<svg width="12" height="12" viewBox="0 0 12 12" fill="none" xmlns="http://www.w3.org/2000/svg">
<path fill-rule="evenodd" clip-rule="evenodd" d="M5.99979 0.742554C5.67079 0.742554 5.3848 0.953054 4.8133 1.37455L3.9528 2.00905C3.8628 2.07555 3.8178 2.10855 3.7693 2.13655C3.7208 2.16455 3.6693 2.18655 3.5668 2.23155L2.5873 2.65955C1.9363 2.94455 1.6108 3.08655 1.4463 3.37105C1.2818 3.65555 1.3213 4.00905 1.4008 4.71505L1.5198 5.77755C1.5323 5.88855 1.5383 5.94405 1.5383 6.00005C1.5383 6.05605 1.5323 6.11155 1.5198 6.22255L1.4008 7.28505C1.3218 7.99105 1.2823 8.34405 1.4463 8.62905C1.6113 8.91405 1.9363 9.05605 2.5873 9.34055L3.5673 9.76855C3.6693 9.81355 3.7208 9.83555 3.7693 9.86355C3.8173 9.89155 3.8628 9.92455 3.9528 9.99105L4.8128 10.6256C5.3853 11.0471 5.6713 11.2576 5.99979 11.2576C6.32829 11.2576 6.6148 11.0471 7.1863 10.6256L8.04679 9.99105C8.1368 9.92455 8.1818 9.89155 8.2303 9.86355C8.2788 9.83555 8.33029 9.81355 8.43279 9.76855L9.4123 9.34055C10.0633 9.05555 10.3888 8.91355 10.5533 8.62905C10.7178 8.34455 10.6783 7.99105 10.5983 7.28505L10.4798 6.22255C10.4673 6.11155 10.4608 6.05605 10.4608 6.00005C10.4608 5.94405 10.4673 5.88855 10.4798 5.77755L10.5988 4.71505C10.6778 4.00905 10.7173 3.65605 10.5533 3.37105C10.3883 3.08605 10.0633 2.94405 9.4123 2.65955L8.43229 2.23155C8.36325 2.20367 8.29581 2.17196 8.2303 2.13655C8.1668 2.09751 8.10554 2.05494 8.04679 2.00905L7.18679 1.37455C6.61379 0.953054 6.3278 0.742554 5.99979 0.742554ZM5.99979 8.00005C6.53023 8.00005 7.03894 7.78934 7.41401 7.41427C7.78908 7.03919 7.99979 6.53049 7.99979 6.00005C7.99979 5.46962 7.78908 4.96091 7.41401 4.58584C7.03894 4.21077 6.53023 4.00005 5.99979 4.00005C5.46936 4.00005 4.96065 4.21077 4.58558 4.58584C4.21051 4.96091 3.9998 5.46962 3.9998 6.00005C3.9998 6.53049 4.21051 7.03919 4.58558 7.41427C4.96065 7.78934 5.46936 8.00005 5.99979 8.00005Z" fill="#4E3117"/>
</svg>
