<svg width="10" height="10" viewBox="0 0 10 10" fill="none" xmlns="http://www.w3.org/2000/svg">
<g clip-path="url(#clip0_3177_1370)">
<path d="M8.75 3.75V7.08333C8.75 7.31375 8.56375 7.5 8.33333 7.5H1.66667C1.43625 7.5 1.25 7.31375 1.25 7.08333V3.75C1.25 1.68208 2.93208 0 5 0C7.06792 0 8.75 1.68208 8.75 3.75ZM5.41667 2.5C5.41667 2.26958 5.23042 2.08333 5 2.08333C4.08083 2.08333 3.33333 2.83083 3.33333 3.75C3.33333 3.98042 3.51958 4.16667 3.75 4.16667C3.98042 4.16667 4.16667 3.98042 4.16667 3.75C4.16667 3.29042 4.54042 2.91667 5 2.91667C5.23042 2.91667 5.41667 2.73042 5.41667 2.5ZM8.75 8.33333H1.25C0.559583 8.33333 0 8.89292 0 9.58333C0 9.81333 0.186667 10 0.416667 10H9.58333C9.81333 10 10 9.81333 10 9.58333C10 8.89292 9.44042 8.33333 8.75 8.33333Z" fill="#FFD2D2"/>
</g>
<defs>
<clipPath id="clip0_3177_1370">
<rect width="10" height="10" fill="white"/>
</clipPath>
</defs>
</svg>
