<svg width="12" height="12" viewBox="0 0 12 12" fill="none" xmlns="http://www.w3.org/2000/svg">
<path d="M8.99838 2H2.99838C2.44588 2 1.98538 2.455 2.12188 2.99C2.26726 3.55692 2.53497 4.08514 2.90622 4.53759C3.27747 4.99003 3.74326 5.35573 4.27088 5.609C4.68238 5.806 4.99838 6.193 4.99838 6.649V9.691C4.99842 9.7762 5.02024 9.85997 5.06175 9.93436C5.10326 10.0088 5.1631 10.0713 5.23558 10.1161C5.30805 10.1609 5.39077 10.1864 5.47588 10.1902C5.56099 10.1941 5.64567 10.1761 5.72188 10.138L6.72188 9.638C6.80492 9.5965 6.87477 9.53271 6.9236 9.45376C6.97244 9.37481 6.99833 9.28383 6.99838 9.191V6.649C6.99838 6.193 7.31438 5.806 7.72538 5.609C8.25319 5.35584 8.71917 4.9902 9.0906 4.53775C9.46203 4.0853 9.72989 3.55701 9.87538 2.99C10.0109 2.455 9.54988 2 8.99838 2Z" fill="#FAECD2" stroke="#FAECD2"/>
</svg>
