<svg width="12" height="12" viewBox="0 0 12 12" fill="none" xmlns="http://www.w3.org/2000/svg">
<path d="M6 8C5.725 8 5.48967 7.90217 5.294 7.7065C5.09833 7.51083 5.00033 7.27533 5 7C4.99967 6.72467 5.09767 6.48933 5.294 6.294C5.49033 6.09867 5.72567 6.00067 6 6C6.27433 5.99933 6.50983 6.09733 6.7065 6.294C6.90317 6.49067 7.001 6.726 7 7C6.999 7.274 6.90117 7.5095 6.7065 7.7065C6.51183 7.9035 6.27633 8.00133 6 8ZM3.6875 3.5H8.3125L8.95 2.225C9.03333 2.05833 9.027 1.89583 8.931 1.7375C8.835 1.57917 8.69133 1.5 8.5 1.5H3.5C3.30833 1.5 3.16467 1.57917 3.069 1.7375C2.97333 1.89583 2.967 2.05833 3.05 2.225L3.6875 3.5ZM4.2 10.5H7.8C8.55 10.5 9.1875 10.2397 9.7125 9.719C10.2375 9.19833 10.5 8.55867 10.5 7.8C10.5 7.48333 10.4458 7.175 10.3375 6.875C10.2292 6.575 10.075 6.30417 9.875 6.0625L8.575 4.5H3.425L2.125 6.0625C1.925 6.30417 1.77083 6.575 1.6625 6.875C1.55417 7.175 1.5 7.48333 1.5 7.8C1.5 8.55833 1.7605 9.198 2.2815 9.719C2.8025 10.24 3.442 10.5003 4.2 10.5Z" fill="#FAECD2"/>
</svg>
