<svg width="12" height="12" viewBox="0 0 12 12" fill="none" xmlns="http://www.w3.org/2000/svg">
<path d="M11 1.5H3.5C3.155 1.5 2.885 1.675 2.705 1.94L0 6L2.705 10.055C2.885 10.32 3.155 10.5 3.5 10.5H11C11.2652 10.5 11.5196 10.3946 11.7071 10.2071C11.8946 10.0196 12 9.76522 12 9.5V2.5C12 2.23478 11.8946 1.98043 11.7071 1.79289C11.5196 1.60536 11.2652 1.5 11 1.5ZM9.5 7.795L8.795 8.5L7 6.705L5.205 8.5L4.5 7.795L6.295 6L4.5 4.205L5.205 3.5L7 5.295L8.795 3.5L9.5 4.205L7.705 6" fill="#FAECD2"/>
</svg>
