<svg width="12" height="12" viewBox="0 0 12 12" fill="none" xmlns="http://www.w3.org/2000/svg">
<path d="M5.99988 1C6.46838 1 6.92488 1.054 7.36288 1.1555C7.42772 1.16947 7.48913 1.1962 7.54353 1.23414C7.59793 1.27207 7.64425 1.32045 7.67977 1.37646C7.7153 1.43246 7.73933 1.49498 7.75046 1.56036C7.76159 1.62574 7.7596 1.69269 7.74461 1.75729C7.72962 1.8219 7.70193 1.88288 7.66314 1.93668C7.62436 1.99048 7.57525 2.03603 7.51869 2.07067C7.46214 2.10531 7.39925 2.12835 7.3337 2.13845C7.26815 2.14855 7.20125 2.14551 7.13688 2.1295C6.89032 2.07225 6.63977 2.03381 6.38738 2.0145L6.17738 2.003L6.34738 2.013C7.07065 2.06794 7.76972 2.29788 8.38438 2.683L8.52088 2.772L8.82388 2.469C8.91365 2.37837 9.03467 2.32548 9.16216 2.32116C9.28965 2.31683 9.41397 2.3614 9.50967 2.44573C9.60538 2.53007 9.66523 2.64779 9.67699 2.77481C9.68874 2.90183 9.65149 3.02854 9.57288 3.129L9.53138 3.176L9.28388 3.4235C9.98363 4.17037 10.4079 5.13345 10.4867 6.15387C10.5654 7.17429 10.294 8.19108 9.71717 9.03649C9.14034 9.8819 8.29255 10.5054 7.31368 10.8042C6.3348 11.103 5.28332 11.0591 4.33271 10.6799C3.3821 10.3007 2.58914 9.60882 2.08466 8.71834C1.58019 7.82786 1.39432 6.79201 1.55774 5.78168C1.72116 4.77136 2.2241 3.84692 2.98357 3.16088C3.74305 2.47484 4.7137 2.06818 5.73538 2.008L5.83488 2.003L5.80488 2.0035C5.54622 2.01383 5.29355 2.04283 5.04688 2.0905L4.86288 2.1295C4.73458 2.15715 4.60056 2.13324 4.48973 2.06294C4.3789 1.99264 4.30016 1.88158 4.27049 1.75373C4.24083 1.62589 4.26262 1.4915 4.33117 1.37958C4.39971 1.26766 4.50952 1.18717 4.63688 1.1555C5.07488 1.054 5.53188 1 5.99988 1ZM5.99988 4C5.86727 4 5.7401 4.05268 5.64633 4.14645C5.55256 4.24021 5.49988 4.36739 5.49988 4.5V6.5C5.49988 6.63261 5.55256 6.75979 5.64633 6.85355C5.7401 6.94732 5.86727 7 5.99988 7C6.13249 7 6.25967 6.94732 6.35344 6.85355C6.4472 6.75979 6.49988 6.63261 6.49988 6.5V4.5C6.49988 4.36739 6.4472 4.24021 6.35344 4.14645C6.25967 4.05268 6.13249 4 5.99988 4Z" fill="#FAECD2"/>
</svg>
