<svg width="12" height="12" viewBox="0 0 12 12" fill="none" xmlns="http://www.w3.org/2000/svg">
<path d="M6 1C6.18767 1 6.37267 1.01017 6.555 1.0305C6.62027 1.03772 6.68347 1.05773 6.74101 1.08938C6.79854 1.12103 6.84928 1.1637 6.89032 1.21496C6.93137 1.26622 6.96191 1.32506 6.98022 1.38812C6.99852 1.45118 7.00422 1.51723 6.997 1.5825C6.98978 1.64777 6.96977 1.71097 6.93812 1.76851C6.90647 1.82604 6.8638 1.87678 6.81254 1.91782C6.76128 1.95887 6.70244 1.98941 6.63938 2.00772C6.57632 2.02602 6.51027 2.03172 6.445 2.0245C5.62102 1.93232 4.78876 2.09847 4.06334 2.49996C3.33791 2.90145 2.75518 3.51845 2.39573 4.2656C2.03629 5.01275 1.9179 5.85314 2.05695 6.67051C2.19599 7.48789 2.5856 8.24186 3.17187 8.82813C3.75814 9.4144 4.51211 9.80401 5.32949 9.94305C6.14686 10.0821 6.98725 9.96371 7.7344 9.60427C8.48155 9.24482 9.09855 8.66209 9.50004 7.93666C9.90153 7.21124 10.0677 6.37898 9.9755 5.555C9.96828 5.48973 9.97398 5.42368 9.99228 5.36062C10.0106 5.29756 10.0411 5.23872 10.0822 5.18746C10.1651 5.08394 10.2857 5.01759 10.4175 5.003C10.5493 4.98841 10.6815 5.02679 10.785 5.10968C10.8363 5.15072 10.879 5.20146 10.9106 5.25899C10.9423 5.31653 10.9623 5.37973 10.9695 5.445C10.9895 5.62733 10.9997 5.81233 11 6C11 8.7615 8.7615 11 6 11C3.2385 11 1 8.7615 1 6C1 3.2385 3.2385 1 6 1ZM5.984 3.9385C6.01695 4.06686 5.9976 4.20305 5.93019 4.31715C5.86278 4.43125 5.75283 4.51392 5.6245 4.547C5.27194 4.63936 4.96502 4.85684 4.76102 5.15885C4.55702 5.46087 4.46988 5.8268 4.51585 6.18835C4.56182 6.5499 4.73777 6.88237 5.01087 7.12372C5.28396 7.36507 5.63554 7.49882 6 7.5C6.33265 7.50014 6.65591 7.3897 6.91894 7.18605C7.18197 6.9824 7.36984 6.69709 7.453 6.375C7.48844 6.24918 7.57175 6.14224 7.68507 6.07709C7.7984 6.01194 7.93274 5.99376 8.0593 6.02645C8.18587 6.05913 8.2946 6.14009 8.36221 6.25197C8.42981 6.36384 8.45092 6.49775 8.421 6.625C8.26761 7.21297 7.90542 7.72498 7.40208 8.06539C6.89874 8.40579 6.28868 8.55131 5.68588 8.47475C5.08308 8.39819 4.52877 8.10479 4.1265 7.64937C3.72424 7.19394 3.50153 6.60764 3.5 6C3.49991 5.44569 3.68405 4.90708 4.02346 4.46884C4.36287 4.03059 4.8383 3.71758 5.375 3.579C5.43859 3.56261 5.50479 3.55891 5.56982 3.5681C5.63484 3.5773 5.69741 3.59922 5.75397 3.6326C5.81052 3.66598 5.85994 3.71018 5.89941 3.76267C5.93888 3.81516 5.96763 3.8749 5.984 3.9385ZM9.252 1.0635C9.34326 1.10134 9.42127 1.16537 9.47618 1.2475C9.53108 1.32964 9.56043 1.4262 9.5605 1.525V2.44H10.475C10.5739 2.44002 10.6705 2.46936 10.7527 2.5243C10.8349 2.57924 10.899 2.65732 10.9368 2.74867C10.9747 2.84002 10.9846 2.94054 10.9653 3.03752C10.946 3.13449 10.8984 3.22357 10.8285 3.2935L9.06 5.06C8.96625 5.15377 8.8391 5.20647 8.7065 5.2065H7.5L6.586 6.121C6.49218 6.21482 6.36493 6.26753 6.23225 6.26753C6.09957 6.26753 5.97232 6.21482 5.8785 6.121C5.78468 6.02718 5.73197 5.89993 5.73197 5.76725C5.73197 5.63457 5.78468 5.50732 5.8785 5.4135L6.793 4.5V3.293C6.79303 3.1604 6.84573 3.03325 6.9395 2.9395L8.707 1.1715C8.77692 1.10153 8.86603 1.05388 8.96304 1.03457C9.06005 1.01525 9.16061 1.02515 9.252 1.063M8.5605 2.7315L7.793 3.5V4.207H8.5L9.268 3.4395H9.0605C8.92789 3.4395 8.80071 3.38682 8.70695 3.29305C8.61318 3.19929 8.5605 3.07211 8.5605 2.9395V2.7315Z" fill="#FAECD2"/>
</svg>
