<svg width="12" height="12" viewBox="0 0 12 12" fill="none" xmlns="http://www.w3.org/2000/svg">
<path d="M10 4.74999C10.1864 4.75 10.3662 4.81945 10.5042 4.9448C10.6422 5.07015 10.7286 5.24241 10.7465 5.42799L10.75 5.49999V7.49999C10.75 8.07838 10.5273 8.63455 10.128 9.05305C9.7288 9.47156 9.18374 9.72025 8.606 9.74749L8.5 9.74999H4.28L4.27 9.90599L4.2645 9.97599C4.2365 10.3355 3.89 10.561 3.599 10.4085L3.442 10.3245L3.258 10.22L3.1565 10.1605L2.937 10.026C2.78064 9.92724 2.62692 9.82437 2.476 9.71749L2.2835 9.57749L2.122 9.45499L2.0535 9.40149C1.809 9.20649 1.8185 8.80399 2.0785 8.59849L2.1465 8.54499L2.3065 8.42399L2.4965 8.28649L2.7155 8.13599C2.83302 8.05754 2.95204 7.98136 3.0725 7.90749L3.2855 7.77999L3.473 7.67449L3.631 7.58949C3.9195 7.43949 4.2345 7.63199 4.262 7.96749L4.281 8.24999H8.5C8.68644 8.24998 8.8662 8.18053 9.00421 8.05518C9.14222 7.92983 9.2286 7.75757 9.2465 7.57199L9.25 7.49999V5.49999C9.25 5.30108 9.32902 5.11032 9.46967 4.96966C9.61032 4.82901 9.80109 4.74999 10 4.74999ZM8.401 1.59149L8.558 1.67549L8.742 1.77999C8.77533 1.79866 8.80917 1.81849 8.8435 1.83949L9.063 1.97399C9.21936 2.07275 9.37308 2.17562 9.524 2.28249L9.7165 2.42249L9.878 2.54499L9.9465 2.59849C10.191 2.79349 10.1815 3.19599 9.9215 3.40149L9.8535 3.45499L9.6935 3.57599L9.5035 3.71349C9.31551 3.84581 9.12341 3.97221 8.9275 4.09249L8.7145 4.21999L8.527 4.32549L8.369 4.41049C8.0805 4.56049 7.7655 4.36799 7.7385 4.03249L7.7185 3.74999H3.5C3.30109 3.74999 3.11032 3.82901 2.96967 3.96966C2.82902 4.11032 2.75 4.30108 2.75 4.49999V6.49999C2.75 6.69891 2.67098 6.88967 2.53033 7.03032C2.38968 7.17098 2.19891 7.24999 2 7.24999C1.80109 7.24999 1.61032 7.17098 1.46967 7.03032C1.32902 6.88967 1.25 6.69891 1.25 6.49999V4.49999C1.25 3.90326 1.48705 3.33096 1.90901 2.909C2.33097 2.48705 2.90326 2.24999 3.5 2.24999H7.72L7.7355 2.02399C7.7635 1.66449 8.11 1.43899 8.401 1.59149Z" fill="#FAECD2"/>
</svg>
