<svg width="12" height="12" viewBox="0 0 12 12" fill="none" xmlns="http://www.w3.org/2000/svg">
<path fill-rule="evenodd" clip-rule="evenodd" d="M6.61581 0.68003C6.93181 0.30103 7.54731 0.56003 7.49731 1.05103L7.14431 4.50003H9.99981C10.0948 4.50007 10.1879 4.52717 10.268 4.57817C10.3482 4.62916 10.4121 4.70194 10.4524 4.78798C10.4927 4.87402 10.5077 4.96976 10.4955 5.06399C10.4834 5.15822 10.4446 5.24703 10.3838 5.32003L5.38381 11.32C5.06781 11.699 4.45231 11.44 4.50231 10.949L4.85531 7.50003H1.99981C1.90481 7.49999 1.81178 7.47289 1.73161 7.42189C1.65145 7.3709 1.58748 7.29812 1.54719 7.21208C1.5069 7.12604 1.49195 7.0303 1.50411 6.93607C1.51626 6.84184 1.55501 6.75303 1.61581 6.68003L6.61581 0.68003Z" fill="#4E3117"/>
</svg>
