<svg width="12" height="12" viewBox="0 0 12 12" fill="none" xmlns="http://www.w3.org/2000/svg">
<path d="M11.4389 6.00001V9.00001C11.4389 9.14919 11.3797 9.29227 11.2742 9.39775C11.1687 9.50324 11.0256 9.56251 10.8764 9.56251H7.87644C7.72726 9.56251 7.58419 9.50324 7.4787 9.39775C7.37321 9.29227 7.31394 9.14919 7.31394 9.00001C7.31394 8.85082 7.37321 8.70775 7.4787 8.60226C7.58419 8.49677 7.72726 8.43751 7.87644 8.43751H9.51707L6.37644 5.29688L4.89941 6.77438C4.84716 6.82682 4.78506 6.86843 4.71669 6.89682C4.64831 6.92521 4.57501 6.93983 4.50098 6.93983C4.42694 6.93983 4.35364 6.92521 4.28527 6.89682C4.21689 6.86843 4.1548 6.82682 4.10254 6.77438L0.727538 3.39938C0.621866 3.29371 0.5625 3.15039 0.5625 3.00095C0.5625 2.92695 0.577075 2.85368 0.605392 2.78531C0.633709 2.71695 0.675215 2.65483 0.727538 2.60251C0.779862 2.55018 0.841979 2.50868 0.910343 2.48036C0.978707 2.45204 1.05198 2.43747 1.12598 2.43747C1.27542 2.43747 1.41874 2.49684 1.52441 2.60251L4.50144 5.57813L5.97848 4.10063C6.03073 4.04819 6.09283 4.00658 6.1612 3.97819C6.22958 3.9498 6.30288 3.93519 6.37691 3.93519C6.45095 3.93519 6.52425 3.9498 6.59262 3.97819C6.661 4.00658 6.72309 4.04819 6.77535 4.10063L10.3139 7.64063V6.00001C10.3139 5.85082 10.3732 5.70775 10.4787 5.60226C10.5842 5.49677 10.7273 5.43751 10.8764 5.43751C11.0256 5.43751 11.1687 5.49677 11.2742 5.60226C11.3797 5.70775 11.4389 5.85082 11.4389 6.00001Z" fill="#FAECD2"/>
</svg>
