<svg width="12" height="12" viewBox="0 0 12 12" fill="none" xmlns="http://www.w3.org/2000/svg">
<path d="M5.99805 4.80042C6.31631 4.80042 6.62164 4.92693 6.84668 5.15198C7.07157 5.37692 7.19814 5.68156 7.19824 5.99963C7.19824 6.31789 7.07172 6.62322 6.84668 6.84827C6.62164 7.07331 6.31631 7.19983 5.99805 7.19983C5.67997 7.19973 5.37533 7.07316 5.15039 6.84827C4.92535 6.62322 4.79883 6.31789 4.79883 5.99963C4.79893 5.68152 4.92544 5.37693 5.15039 5.15198C5.37534 4.92703 5.67993 4.80052 5.99805 4.80042Z" fill="#4E3117" stroke="#FEE69B" stroke-width="0.3"/>
<path d="M6 1.35034C8.44274 1.35034 10.1115 2.80917 11.1162 4.11401C11.3738 4.44889 11.5531 4.68225 11.6719 4.95093C11.7884 5.21471 11.8496 5.52159 11.8496 5.99976C11.8496 6.47768 11.7884 6.78462 11.6719 7.04858C11.5531 7.31756 11.3739 7.55177 11.1162 7.88647C10.1115 9.19126 8.44259 10.6501 6 10.6501C3.55741 10.6501 1.8885 9.19126 0.883789 7.88647C0.626031 7.55139 0.446929 7.31743 0.328125 7.04858C0.211558 6.78478 0.150391 6.47801 0.150391 5.99976C0.150407 5.522 0.211601 5.21566 0.328125 4.9519C0.446914 4.68309 0.626117 4.44929 0.883789 4.11401C1.88848 2.80917 3.55726 1.35034 6 1.35034ZM6 3.60034C5.36353 3.60034 4.75281 3.85246 4.30273 4.30249C3.85269 4.75253 3.59966 5.36331 3.59961 5.99976C3.59961 6.63623 3.85271 7.24694 4.30273 7.69702C4.75282 8.14711 5.36348 8.40015 6 8.40015C6.63652 8.40015 7.24718 8.14711 7.69727 7.69702C8.14729 7.24694 8.40039 6.63623 8.40039 5.99976C8.40034 5.36331 8.14731 4.75253 7.69727 4.30249C7.24719 3.85246 6.63647 3.60034 6 3.60034Z" fill="#4E3117" stroke="#FEE69B" stroke-width="0.3"/>
</svg>
