<svg width="12" height="12" viewBox="0 0 12 12" fill="none" xmlns="http://www.w3.org/2000/svg">
<path fill-rule="evenodd" clip-rule="evenodd" d="M2.086 1.586C1.5 2.1715 1.5 3.1145 1.5 5V7C1.5 8.8855 1.5 9.8285 2.086 10.414C2.672 10.9995 3.6145 11 5.5 11H6.5C8.3855 11 9.3285 11 9.914 10.414C10.4995 9.828 10.5 8.8855 10.5 7V5C10.5 3.1145 10.5 2.1715 9.914 1.586C9.328 1.0005 8.3855 1 6.5 1H5.5C3.6145 1 2.6715 1 2.086 1.586ZM4 4.625C3.90054 4.625 3.80516 4.66451 3.73483 4.73484C3.66451 4.80516 3.625 4.90054 3.625 5C3.625 5.09946 3.66451 5.19484 3.73483 5.26516C3.80516 5.33549 3.90054 5.375 4 5.375H8C8.09946 5.375 8.19484 5.33549 8.26517 5.26516C8.33549 5.19484 8.375 5.09946 8.375 5C8.375 4.90054 8.33549 4.80516 8.26517 4.73484C8.19484 4.66451 8.09946 4.625 8 4.625H4ZM4 6.625C3.90054 6.625 3.80516 6.66451 3.73483 6.73484C3.66451 6.80516 3.625 6.90054 3.625 7C3.625 7.09946 3.66451 7.19484 3.73483 7.26516C3.80516 7.33549 3.90054 7.375 4 7.375H6.5C6.59946 7.375 6.69484 7.33549 6.76516 7.26516C6.83549 7.19484 6.875 7.09946 6.875 7C6.875 6.90054 6.83549 6.80516 6.76516 6.73484C6.69484 6.66451 6.59946 6.625 6.5 6.625H4Z" fill="#FAECD2"/>
</svg>
