<svg width="12" height="12" viewBox="0 0 12 12" fill="none" xmlns="http://www.w3.org/2000/svg">
<path fill-rule="evenodd" clip-rule="evenodd" d="M5.99998 3.17849e-05C4.15285 3.17849e-05 2.63399 0.521173 1.57714 1.57717C0.520284 2.63317 0 4.15374 0 6.00002C0 7.8463 0.521142 9.36601 1.57714 10.4229C2.63485 11.478 4.1537 12 5.99998 12C8.34855 12 10.1554 11.154 11.154 9.48001C11.1927 9.41956 11.2188 9.35195 11.2309 9.28119C11.243 9.21043 11.2407 9.13796 11.2242 9.0681C11.2077 8.99824 11.1774 8.9324 11.1349 8.8745C11.0925 8.8166 11.0389 8.76782 10.9772 8.73105C10.9156 8.69428 10.8472 8.67027 10.7761 8.66045C10.705 8.65064 10.6326 8.65521 10.5633 8.6739C10.494 8.6926 10.4292 8.72503 10.3726 8.76927C10.3161 8.81351 10.2691 8.86866 10.2343 8.93144C9.47998 10.194 8.08455 10.9286 5.99998 10.9286C4.34999 10.9286 3.13713 10.4657 2.33485 9.66515C1.53428 8.86287 1.07143 7.65001 1.07143 6.00002C1.07143 4.35002 1.53428 3.13717 2.33485 2.33488C3.13713 1.53431 4.34999 1.07146 5.99998 1.07146C6.43375 1.06931 6.86686 1.10545 7.29427 1.17946C7.43222 1.20021 7.57283 1.16632 7.68619 1.085C7.79955 1.00368 7.87672 0.881353 7.90128 0.744024C7.92585 0.606694 7.89587 0.465199 7.81772 0.34963C7.73958 0.23406 7.61943 0.153534 7.48284 0.125174C6.99312 0.0405503 6.49696 -0.00132165 5.99998 3.17849e-05ZM9.51683 0.868315C9.45672 0.831733 9.39 0.807348 9.32047 0.796552C9.25094 0.785757 9.17996 0.788762 9.11159 0.805397C9.04322 0.822032 8.9788 0.851971 8.922 0.893503C8.86519 0.935036 8.81713 0.98735 8.78055 1.04746C8.74397 1.10757 8.71958 1.17429 8.70879 1.24382C8.69799 1.31335 8.701 1.38433 8.71763 1.4527C8.73427 1.52107 8.7642 1.5855 8.80574 1.6423C8.84727 1.6991 8.89958 1.74716 8.95969 1.78374C9.5589 2.14603 10.044 2.66973 10.3594 3.29488C10.4263 3.41747 10.5385 3.50908 10.672 3.55019C10.8054 3.59129 10.9497 3.57864 11.074 3.51493C11.1983 3.45122 11.2928 3.34149 11.3373 3.20912C11.3819 3.07675 11.373 2.93222 11.3125 2.80631C10.907 2.00505 10.2849 1.33362 9.51683 0.868315ZM11.9417 4.96716C11.9335 4.89726 11.9116 4.82966 11.8772 4.76823C11.8429 4.70679 11.7968 4.65272 11.7415 4.60911C11.6863 4.56549 11.623 4.53318 11.5553 4.51402C11.4876 4.49486 11.4167 4.48923 11.3468 4.49745C11.2769 4.50567 11.2093 4.52757 11.1479 4.56191C11.0865 4.59625 11.0324 4.64236 10.9888 4.6976C10.9452 4.75283 10.9128 4.81612 10.8937 4.88385C10.8745 4.95157 10.8689 5.0224 10.8771 5.09231C10.9114 5.37859 10.9285 5.68116 10.9285 6.00002C10.9285 6.45144 10.8945 6.87087 10.8265 7.2583C10.8023 7.39833 10.8347 7.54225 10.9166 7.65839C10.9985 7.77453 11.1232 7.85337 11.2633 7.87758C11.4033 7.90179 11.5472 7.86938 11.6633 7.78748C11.7795 7.70559 11.8583 7.5809 11.8825 7.44087C11.9608 6.98716 12 6.50687 12 6.00002C12 5.6423 11.9805 5.29802 11.9417 4.96716ZM6.74998 4.27288C6.74998 4.07397 6.67097 3.8832 6.53031 3.74255C6.38966 3.6019 6.1989 3.52288 5.99998 3.52288C5.80107 3.52288 5.61031 3.6019 5.46966 3.74255C5.329 3.8832 5.24999 4.07397 5.24999 4.27288V6.21859C5.24999 6.39773 5.31427 6.57087 5.43084 6.70716L7.08684 8.63658C7.151 8.71132 7.22925 8.7727 7.31713 8.81719C7.40501 8.86169 7.50079 8.88845 7.59901 8.89593C7.69723 8.90341 7.79596 8.89147 7.88956 8.8608C7.98316 8.83012 8.06981 8.78131 8.14455 8.71715C8.21929 8.65299 8.28066 8.57474 8.32516 8.48686C8.36966 8.39898 8.39641 8.3032 8.4039 8.20498C8.41138 8.10677 8.39944 8.00804 8.36877 7.91443C8.33809 7.82083 8.28928 7.73418 8.22512 7.65944L6.75084 5.94087L6.74998 4.27288Z" fill="#FAECD2"/>
</svg>
