<svg width="12" height="12" viewBox="0 0 12 12" fill="none" xmlns="http://www.w3.org/2000/svg">
<path d="M7 1.53601C7.47624 1.81099 7.89067 2.18121 8.21739 2.62355C8.54412 3.06589 8.77612 3.57085 8.89892 4.10689C9.02171 4.64292 9.03266 5.19852 8.93107 5.73898C8.82949 6.27944 8.61755 6.79315 8.3085 7.24801L10.7805 9.71951C10.9181 9.85513 10.9981 10.0386 11.0038 10.2318C11.0094 10.4249 10.9403 10.6128 10.8109 10.7562C10.6814 10.8997 10.5016 10.9876 10.3089 11.0017C10.1162 11.0158 9.92548 10.9551 9.7765 10.832L9.7195 10.7805L7.248 8.30851C6.6567 8.71016 5.96856 8.94601 5.2552 8.99154C4.54184 9.03706 3.8293 8.8906 3.19174 8.56737C2.55418 8.24415 2.01488 7.75598 1.62995 7.15366C1.24502 6.55134 1.02853 5.85687 1.003 5.14251L1 5.00001L1.0025 4.85751C1.0271 4.16789 1.22968 3.49635 1.59057 2.90818C1.95146 2.32001 2.45837 1.8352 3.06204 1.50088C3.66572 1.16656 4.34561 0.994094 5.03565 1.00025C5.72568 1.00641 6.40239 1.19097 7 1.53601ZM5 3.00001C4.87753 3.00003 4.75933 3.04499 4.66781 3.12637C4.5763 3.20775 4.51783 3.31989 4.5035 3.44151L4.5 3.50001V4.50001H3.5L3.4415 4.50351C3.31998 4.51797 3.20797 4.57649 3.12671 4.668C3.04544 4.7595 3.00056 4.87763 3.00056 5.00001C3.00056 5.1224 3.04544 5.24053 3.12671 5.33203C3.20797 5.42354 3.31998 5.48206 3.4415 5.49651L3.5 5.50001H4.5V6.50001L4.5035 6.55851C4.51796 6.68004 4.57648 6.79204 4.66798 6.87331C4.75949 6.95457 4.87762 6.99946 5 6.99946C5.12238 6.99946 5.24051 6.95457 5.33202 6.87331C5.42352 6.79204 5.48205 6.68004 5.4965 6.55851L5.5 6.50001V5.50001H6.5L6.5585 5.49651C6.68002 5.48206 6.79203 5.42354 6.87329 5.33203C6.95456 5.24053 6.99944 5.1224 6.99944 5.00001C6.99944 4.87763 6.95456 4.7595 6.87329 4.668C6.79203 4.57649 6.68002 4.51797 6.5585 4.50351L6.5 4.50001H5.5V3.50001L5.4965 3.44151C5.48217 3.31989 5.4237 3.20775 5.33219 3.12637C5.24067 3.04499 5.12247 3.00003 5 3.00001Z" fill="#FAECD2"/>
</svg>
