<svg width="10" height="10" viewBox="0 0 10 10" fill="none" xmlns="http://www.w3.org/2000/svg">
<path d="M9.16146 3.13959V7.08334C9.16148 7.40218 9.03966 7.70897 8.82092 7.94095C8.60219 8.17292 8.30308 8.31255 7.98479 8.33125L7.91146 8.33334H2.07812C1.75929 8.33335 1.45249 8.21153 1.22052 7.9928C0.988539 7.77407 0.848914 7.47496 0.830208 7.15667L0.828125 7.08334V3.13959L4.76354 5.76334L4.81187 5.79084C4.86884 5.81867 4.9314 5.83313 4.99479 5.83313C5.05819 5.83313 5.12075 5.81867 5.17771 5.79084L5.22604 5.76334L9.16146 3.13959Z" fill="#FAECD2"/>
<path d="M7.90964 1.66675C8.35964 1.66675 8.75422 1.90425 8.97422 2.26133L4.99297 4.9155L1.01172 2.26133C1.11622 2.09167 1.25976 1.94946 1.43037 1.84654C1.60099 1.74361 1.79374 1.68297 1.99255 1.66966L2.0763 1.66675H7.90964Z" fill="#FAECD2"/>
</svg>
