<svg width="12" height="12" viewBox="0 0 12 12" fill="none" xmlns="http://www.w3.org/2000/svg">
<g clip-path="url(#clip0_1418_2174)">
<path d="M9.97404 0.500156H2.02604C1.68051 0.498149 1.34028 0.585027 1.03802 0.752444C0.735757 0.919861 0.481626 1.16219 0.300036 1.45616C0.120691 1.74307 0.0181262 2.07128 0.00219036 2.40926C-0.0137455 2.74724 0.0574832 3.08364 0.209036 3.38616L4.19004 10.3942C4.36135 10.7283 4.6218 11.0084 4.94255 11.2036C5.26329 11.3988 5.6318 11.5015 6.00727 11.5001C6.38274 11.4988 6.75051 11.3935 7.06985 11.196C7.38919 10.9985 7.64762 10.7165 7.81654 10.3812L11.7775 3.41066C11.9345 3.10591 12.0099 2.76567 11.9962 2.42312C11.9825 2.08058 11.8803 1.74742 11.6995 1.45616C11.518 1.16226 11.2639 0.91998 10.9618 0.752567C10.6596 0.585155 10.3195 0.498236 9.97404 0.500156Z" fill="#4E3117"/>
</g>
<defs>
<clipPath id="clip0_1418_2174">
<rect width="12" height="12" fill="white" transform="matrix(1 0 0 -1 0 12)"/>
</clipPath>
</defs>
</svg>
