<svg width="16" height="16" viewBox="0 0 16 16" fill="none" xmlns="http://www.w3.org/2000/svg">
<path d="M14.1158 10.2653L10.1745 3.69597C9.65716 2.83397 8.86582 2.34064 8.00182 2.34064C7.13783 2.34064 6.34649 2.83397 5.82916 3.69464L1.88783 10.2653C1.36383 11.138 1.30649 12.0686 1.73116 12.8186C2.15516 13.5693 2.98316 14 4.00183 14H12.0018C13.0205 14 13.8485 13.5693 14.2725 12.8193C14.6965 12.0693 14.6398 11.1386 14.1158 10.2653ZM8.00182 11.6993C7.43249 11.6993 6.96849 11.236 6.96849 10.6666C6.96849 10.0966 7.43182 9.63264 8.00182 9.63264C8.57183 9.63264 9.03516 10.0966 9.03516 10.6666C9.03516 11.236 8.57116 11.6993 8.00182 11.6993ZM9.09049 6.74997C9.08316 6.77064 8.15649 9.06197 8.15649 9.06197C8.13116 9.12464 8.06983 9.16597 8.00249 9.16597C7.93516 9.16597 7.87383 9.12464 7.84849 9.06197L6.92116 6.76997C6.86551 6.63105 6.83635 6.48295 6.83516 6.3333C6.83516 5.68997 7.35849 5.16664 8.00182 5.16664C8.19077 5.16712 8.37678 5.21344 8.54389 5.30161C8.711 5.38978 8.85423 5.51718 8.96128 5.67288C9.06833 5.82857 9.13601 6.00791 9.15852 6.19551C9.18102 6.38311 9.15768 6.57337 9.09049 6.74997Z" fill="#FFEAAD"/>
</svg>
