<svg width="24" height="24" viewBox="0 0 24 24" fill="none" xmlns="http://www.w3.org/2000/svg">
<path d="M21.1718 15.398L15.2598 5.54399C14.4838 4.25099 13.2968 3.51099 12.0008 3.51099C10.7048 3.51099 9.51778 4.25099 8.74178 5.54199L2.82978 15.398C2.04378 16.707 1.95778 18.103 2.59478 19.228C3.23078 20.354 4.47278 21 6.00078 21H18.0008C19.5288 21 20.7708 20.354 21.4068 19.229C22.0428 18.104 21.9578 16.708 21.1718 15.398ZM12.0008 17.549C11.1468 17.549 10.4508 16.854 10.4508 16C10.4508 15.145 11.1458 14.449 12.0008 14.449C12.8558 14.449 13.5508 15.145 13.5508 16C13.5508 16.854 12.8548 17.549 12.0008 17.549ZM13.6338 10.125C13.6228 10.156 12.2328 13.593 12.2328 13.593C12.1948 13.687 12.1028 13.749 12.0018 13.749C11.9008 13.749 11.8088 13.687 11.7708 13.593L10.3798 10.155C10.2963 9.94661 10.2526 9.72445 10.2508 9.49999C10.2508 8.53499 11.0358 7.74999 12.0008 7.74999C12.2842 7.75071 12.5632 7.82019 12.8139 7.95245C13.0645 8.08471 13.2794 8.2758 13.44 8.50935C13.6005 8.74289 13.7021 9.0119 13.7358 9.2933C13.7696 9.5747 13.7346 9.86009 13.6338 10.125Z" fill="#FAECD2"/>
</svg>
