<svg width="62" height="56" viewBox="0 0 62 56" fill="none" xmlns="http://www.w3.org/2000/svg">
<mask id="path-1-inside-1_813_1297" fill="white">
<path d="M57.3496 31C57.3496 42.69 57.35 48.5369 53.7168 52.167C50.0836 55.7971 44.2398 55.7998 32.5498 55.7998H29.4492C17.7598 55.7998 11.9133 55.7998 8.2832 52.167C4.65312 48.5338 4.64941 42.69 4.64941 31V17.0439L5.98535 17.0498H56.0137L57.3496 17.0439V31ZM26.3496 23.25C24.905 23.25 24.1827 23.2498 23.6123 23.4854C22.8532 23.7999 22.2502 24.4031 21.9355 25.1621C21.7 25.7325 21.6992 26.4551 21.6992 27.8994C21.6992 29.3438 21.6999 30.0664 21.9385 30.6367C22.2524 31.3954 22.8542 31.9992 23.6123 32.3145C24.1827 32.55 24.9051 32.5498 26.3496 32.5498H35.6494C37.0937 32.5498 37.8164 32.5501 38.3867 32.3115C39.1454 31.9976 39.7492 31.3948 40.0645 30.6367C40.2999 30.0664 40.2998 29.3436 40.2998 27.8994C40.2998 26.4551 40.2992 25.7325 40.0605 25.1621C39.7466 24.4037 39.1446 23.8006 38.3867 23.4854C37.8164 23.2498 37.0938 23.25 35.6494 23.25H26.3496ZM55.7998 0C58.7231 0 60.1835 -9.69561e-05 61.0918 0.908203C61.9999 1.81647 62 3.27639 62 6.19922C62 9.12238 62 10.5829 61.0918 11.4912C60.1835 12.3995 58.7231 12.3994 55.7998 12.3994H6.2002C3.27689 12.3994 1.8165 12.3995 0.908203 11.4912C3.79186e-05 10.5829 0 9.12237 0 6.19922C2.55008e-09 3.2764 0.000109198 1.81647 0.908203 0.908203C1.8165 -9.69561e-05 3.27689 0 6.2002 0H55.7998Z"/>
</mask>
<path d="M57.3496 31C57.3496 42.69 57.35 48.5369 53.7168 52.167C50.0836 55.7971 44.2398 55.7998 32.5498 55.7998H29.4492C17.7598 55.7998 11.9133 55.7998 8.2832 52.167C4.65312 48.5338 4.64941 42.69 4.64941 31V17.0439L5.98535 17.0498H56.0137L57.3496 17.0439V31ZM26.3496 23.25C24.905 23.25 24.1827 23.2498 23.6123 23.4854C22.8532 23.7999 22.2502 24.4031 21.9355 25.1621C21.7 25.7325 21.6992 26.4551 21.6992 27.8994C21.6992 29.3438 21.6999 30.0664 21.9385 30.6367C22.2524 31.3954 22.8542 31.9992 23.6123 32.3145C24.1827 32.55 24.9051 32.5498 26.3496 32.5498H35.6494C37.0937 32.5498 37.8164 32.5501 38.3867 32.3115C39.1454 31.9976 39.7492 31.3948 40.0645 30.6367C40.2999 30.0664 40.2998 29.3436 40.2998 27.8994C40.2998 26.4551 40.2992 25.7325 40.0605 25.1621C39.7466 24.4037 39.1446 23.8006 38.3867 23.4854C37.8164 23.2498 37.0938 23.25 35.6494 23.25H26.3496ZM55.7998 0C58.7231 0 60.1835 -9.69561e-05 61.0918 0.908203C61.9999 1.81647 62 3.27639 62 6.19922C62 9.12238 62 10.5829 61.0918 11.4912C60.1835 12.3995 58.7231 12.3994 55.7998 12.3994H6.2002C3.27689 12.3994 1.8165 12.3995 0.908203 11.4912C3.79186e-05 10.5829 0 9.12237 0 6.19922C2.55008e-09 3.2764 0.000109198 1.81647 0.908203 0.908203C1.8165 -9.69561e-05 3.27689 0 6.2002 0H55.7998Z" fill="#3D241B"/>
<path d="M57.3496 31H58.3496H57.3496ZM53.7168 52.167L54.4236 52.8744H54.4236L53.7168 52.167ZM32.5498 55.7998V56.7998V55.7998ZM29.4492 55.7998V56.7998V55.7998ZM8.2832 52.167L7.57579 52.8738L7.57583 52.8738L8.2832 52.167ZM4.64941 31H3.64941H4.64941ZM4.64941 17.0439L4.6538 16.044L3.64941 16.0395V17.0439H4.64941ZM5.98535 17.0498L5.98097 18.0498H5.98535V17.0498ZM56.0137 17.0498V18.0498L56.0181 18.0498L56.0137 17.0498ZM57.3496 17.0439H58.3496V16.0395L57.3452 16.044L57.3496 17.0439ZM26.3496 23.25V22.25V23.25ZM23.6123 23.4854L23.2305 22.5611L23.2295 22.5615L23.6123 23.4854ZM21.9355 25.1621L21.0118 24.7791L21.0113 24.7803L21.9355 25.1621ZM21.6992 27.8994H20.6992H21.6992ZM21.9385 30.6367L22.8625 30.2544L22.861 30.2508L21.9385 30.6367ZM23.6123 32.3145L23.2283 33.2378L23.2306 33.2387L23.6123 32.3145ZM26.3496 32.5498V33.5498V32.5498ZM38.3867 32.3115L38.0044 31.3875L38.0008 31.389L38.3867 32.3115ZM40.0645 30.6367L40.9878 31.0208L40.9888 31.0182L40.0645 30.6367ZM40.2998 27.8994H41.2998H40.2998ZM40.0605 25.1621L39.1366 25.5446L39.1381 25.5481L40.0605 25.1621ZM38.3867 23.4854L38.7707 22.562L38.7684 22.561L38.3867 23.4854ZM61.0918 0.908203L61.799 0.20116L61.7989 0.201096L61.0918 0.908203ZM62 6.19922H63H62ZM61.0918 11.4912L61.7989 12.1983L61.799 12.1983L61.0918 11.4912ZM0.908203 11.4912L0.20104 12.1983L0.201096 12.1983L0.908203 11.4912ZM0 6.19922H-1H0ZM0.908203 0.908203L0.201096 0.201096L0.20103 0.201162L0.908203 0.908203ZM57.3496 31H56.3496C56.3496 36.8733 56.3476 41.1781 55.9046 44.4727C55.4654 47.7385 54.6095 49.8614 53.01 51.4596L53.7168 52.167L54.4236 52.8744C56.4572 50.8425 57.4178 48.2268 57.8867 44.7392C58.3518 41.2803 58.3496 36.8167 58.3496 31H57.3496ZM53.7168 52.167L53.01 51.4596C51.41 53.0582 49.2866 53.9141 46.0212 54.3536C42.727 54.797 38.4229 54.7998 32.5498 54.7998V55.7998V56.7998C38.3667 56.7998 42.8295 56.8012 46.288 56.3357C49.7753 55.8664 52.3904 54.9059 54.4236 52.8744L53.7168 52.167ZM32.5498 55.7998V54.7998H29.4492V55.7998V56.7998H32.5498V55.7998ZM29.4492 55.7998V54.7998C23.5762 54.7998 19.2717 54.7977 15.9772 54.3546C12.7116 53.9154 10.5888 53.0596 8.99057 51.4601L8.2832 52.167L7.57583 52.8738C9.6077 54.9072 12.2232 55.8678 15.7107 56.3368C19.1694 56.8019 23.6328 56.7998 29.4492 56.7998V55.7998ZM8.2832 52.167L8.99061 51.4602C7.39195 49.8602 6.53583 47.7367 6.09608 44.4713C5.65246 41.1772 5.64941 36.8731 5.64941 31H4.64941H3.64941C3.64941 36.8169 3.64822 41.2797 4.11397 44.7383C4.5836 48.2256 5.54438 50.8406 7.57579 52.8738L8.2832 52.167ZM4.64941 31H5.64941V17.0439H4.64941H3.64941V31H4.64941ZM4.64941 17.0439L4.64503 18.0439L5.98097 18.0498L5.98535 17.0498L5.98974 16.0498L4.6538 16.044L4.64941 17.0439ZM5.98535 17.0498V18.0498H56.0137V17.0498V16.0498H5.98535V17.0498ZM56.0137 17.0498L56.0181 18.0498L57.354 18.0439L57.3496 17.0439L57.3452 16.044L56.0093 16.0498L56.0137 17.0498ZM57.3496 17.0439H56.3496V31H57.3496H58.3496V17.0439H57.3496ZM26.3496 23.25V22.25C25.6411 22.25 25.0596 22.2494 24.5853 22.2816C24.1021 22.3145 23.6576 22.3847 23.2305 22.5611L23.6123 23.4854L23.9941 24.4096C24.1374 24.3504 24.3393 24.303 24.7209 24.277C25.1116 24.2505 25.6136 24.25 26.3496 24.25V23.25ZM23.6123 23.4854L23.2295 22.5615C22.2254 22.9776 21.4279 23.7754 21.0118 24.7791L21.9355 25.1621L22.8593 25.5451C23.0725 25.0307 23.4811 24.6222 23.9951 24.4092L23.6123 23.4854ZM21.9355 25.1621L21.0113 24.7803C20.835 25.207 20.7645 25.6512 20.7314 26.1347C20.6989 26.6092 20.6992 27.1906 20.6992 27.8994H21.6992H22.6992C22.6992 27.1639 22.6999 26.6618 22.7267 26.2714C22.7528 25.8898 22.8005 25.6875 22.8598 25.5439L21.9355 25.1621ZM21.6992 27.8994H20.6992C20.6992 28.608 20.6988 29.19 20.7318 29.665C20.7654 30.1492 20.8369 30.5947 21.0159 31.0226L21.9385 30.6367L22.861 30.2508C22.8014 30.1084 22.7534 29.9074 22.727 29.5266C22.6999 29.1367 22.6992 28.6352 22.6992 27.8994H21.6992ZM21.9385 30.6367L21.0144 31.019C21.4294 32.0219 22.2252 32.8206 23.2283 33.2378L23.6123 32.3145L23.9963 31.3911C23.4833 31.1777 23.0753 30.7688 22.8625 30.2544L21.9385 30.6367ZM23.6123 32.3145L23.2306 33.2387C23.6576 33.4151 24.1021 33.4853 24.5853 33.5182C25.0596 33.5504 25.6411 33.5498 26.3496 33.5498V32.5498V31.5498C25.6136 31.5498 25.1116 31.5493 24.721 31.5228C24.3393 31.4968 24.1374 31.4494 23.994 31.3902L23.6123 32.3145ZM26.3496 32.5498V33.5498H35.6494V32.5498V31.5498H26.3496V32.5498ZM35.6494 32.5498V33.5498C36.3577 33.5498 36.9396 33.5504 37.4144 33.5178C37.8984 33.4845 38.3443 33.4132 38.7726 33.2341L38.3867 32.3115L38.0008 31.389C37.8588 31.4484 37.6582 31.4963 37.2772 31.5225C36.887 31.5493 36.3855 31.5498 35.6494 31.5498V32.5498ZM38.3867 32.3115L38.769 33.2356C39.7725 32.8204 40.5708 32.0233 40.9878 31.0207L40.0645 30.6367L39.1411 30.2527C38.9275 30.7663 38.5182 31.1749 38.0044 31.3875L38.3867 32.3115ZM40.0645 30.6367L40.9888 31.0182C41.165 30.5913 41.2352 30.1469 41.2681 29.6636C41.3004 29.1893 41.2998 28.6079 41.2998 27.8994H40.2998H39.2998C39.2998 28.6352 39.2993 29.1372 39.2727 29.5279C39.2467 29.9097 39.1993 30.1118 39.1401 30.2552L40.0645 30.6367ZM40.2998 27.8994H41.2998C41.2998 27.1909 41.3002 26.6089 41.2673 26.1339C41.2337 25.6497 41.1621 25.2041 40.983 24.7761L40.0605 25.1621L39.1381 25.5481C39.1976 25.6905 39.2457 25.8914 39.2721 26.2722C39.2991 26.6621 39.2998 27.1636 39.2998 27.8994H40.2998ZM40.0605 25.1621L40.9845 24.7796C40.5693 23.7766 39.7732 22.979 38.7707 22.562L38.3867 23.4854L38.0027 24.4087C38.516 24.6222 38.9239 25.0308 39.1366 25.5446L40.0605 25.1621ZM38.3867 23.4854L38.7684 22.561C38.3413 22.3847 37.8969 22.3145 37.4137 22.2817C36.9394 22.2494 36.3579 22.25 35.6494 22.25V23.25V24.25C36.3853 24.25 36.8873 24.2505 37.278 24.2771C37.6597 24.303 37.8617 24.3505 38.0051 24.4097L38.3867 23.4854ZM35.6494 23.25V22.25H26.3496V23.25V24.25H35.6494V23.25ZM55.7998 0V1C57.2898 1 58.3062 1.0021 59.0681 1.10457C59.8011 1.20314 60.1472 1.37782 60.3847 1.61531L61.0918 0.908203L61.7989 0.201096C61.1281 -0.469716 60.2898 -0.749136 59.3347 -0.877588C58.4085 -1.00215 57.2331 -1 55.7998 -1V0ZM61.0918 0.908203L60.3846 1.61525C60.6221 1.85278 60.7968 2.19885 60.8954 2.93159C60.9978 3.69329 61 4.70953 61 6.19922H62H63C63 4.76608 63.0021 3.59095 62.8775 2.66491C62.749 1.70992 62.4696 0.871891 61.799 0.20116L61.0918 0.908203ZM62 6.19922H61C61 7.68908 60.9979 8.70557 60.8954 9.46748C60.7968 10.2005 60.6221 10.5467 60.3846 10.7842L61.0918 11.4912L61.799 12.1983C62.4697 11.5275 62.7491 10.6892 62.8775 9.73409C63.0021 8.80787 63 7.63252 63 6.19922H62ZM61.0918 11.4912L60.3847 10.7841C60.1472 11.0216 59.8011 11.1963 59.0681 11.2948C58.3062 11.3973 57.2898 11.3994 55.7998 11.3994V12.3994V13.3994C57.2331 13.3994 58.4085 13.4016 59.3347 13.277C60.2898 13.1486 61.1281 12.8691 61.7989 12.1983L61.0918 11.4912ZM55.7998 12.3994V11.3994H6.2002V12.3994V13.3994H55.7998V12.3994ZM6.2002 12.3994V11.3994C4.71024 11.3994 3.69376 11.3973 2.93186 11.2948C2.19889 11.1963 1.8528 11.0216 1.61531 10.7841L0.908203 11.4912L0.201096 12.1983C0.871908 12.8691 1.71016 13.1486 2.66529 13.277C3.59149 13.4016 4.76685 13.3994 6.2002 13.3994V12.3994ZM0.908203 11.4912L1.61537 10.7842C1.3779 10.5467 1.20321 10.2005 1.10461 9.46748C1.00213 8.70557 1 7.68907 1 6.19922H0H-1C-1 7.63252 -1.00212 8.80787 -0.877536 9.73409C-0.749069 10.6892 -0.469661 11.5275 0.20104 12.1983L0.908203 11.4912ZM0 6.19922H1C1 4.70954 1.00215 3.69329 1.10464 2.9316C1.20322 2.19885 1.37789 1.85278 1.61538 1.61524L0.908203 0.908203L0.20103 0.201162C-0.469575 0.871893 -0.749014 1.70992 -0.877503 2.66491C-1.0021 3.59095 -1 4.76608 -1 6.19922H0ZM0.908203 0.908203L1.61531 1.61531C1.8528 1.37782 2.19889 1.20314 2.93186 1.10457C3.69376 1.0021 4.71024 1 6.2002 1V0V-1C4.76685 -1 3.59149 -1.00215 2.66529 -0.877588C1.71016 -0.749136 0.871908 -0.469716 0.201096 0.201096L0.908203 0.908203ZM6.2002 0V1H55.7998V0V-1H6.2002V0Z" fill="url(#paint0_linear_813_1297)" mask="url(#path-1-inside-1_813_1297)"/>
<defs>
<linearGradient id="paint0_linear_813_1297" x1="31.1132" y1="55.7998" x2="28.8692" y2="0.0812558" gradientUnits="userSpaceOnUse">
<stop stop-color="#FEE69B"/>
<stop offset="1" stop-color="#FEE69B" stop-opacity="0"/>
</linearGradient>
</defs>
</svg>
