<svg width="48" height="62" viewBox="0 0 48 62" fill="none" xmlns="http://www.w3.org/2000/svg">
<mask id="path-1-inside-1_1143_554" fill="white">
<path d="M31.6738 0C34.0123 0 35.9073 0.000167899 37.4413 0.132812C39.0214 0.265475 40.4171 0.548044 41.703 1.22851C43.7511 2.31512 45.4021 4.02327 46.4179 6.10741C47.058 7.41656 47.3291 8.82964 47.4559 10.4531C47.5799 12.0361 47.58 13.9912 47.58 16.4277V45.5731C47.58 48.0067 47.5799 49.9618 47.453 51.5419C47.3261 53.1682 47.058 54.5814 46.4149 55.8905C45.3999 57.9742 43.7501 59.6823 41.703 60.7694C40.4171 61.4499 39.0242 61.7325 37.4413 61.868C36.0173 61.967 34.5895 62.0104 33.162 61.9979V41.0917C33.162 38.9885 32.3259 36.9714 30.8388 35.4843C29.3516 33.9972 27.3345 33.162 25.2314 33.162H22.3476C20.2447 33.1621 18.2282 33.9974 16.7412 35.4843C15.254 36.9714 14.4179 38.9885 14.4179 41.0917V61.9979C12.7455 61.9921 11.3353 61.9689 10.1386 61.8651C8.55854 61.7324 7.16296 61.4499 5.87694 60.7694C3.82883 59.6828 2.17792 57.9746 1.16211 55.8905C0.521965 54.5814 0.253791 53.1682 0.124023 51.5448C3.47785e-05 49.9618 4.06058e-10 48.0067 0 45.5702V16.4277C1.48378e-10 13.9912 7.8302e-05 12.0361 0.126953 10.4531C0.253832 8.82963 0.521992 7.41657 1.16504 6.10741C2.17934 4.02412 3.82801 2.31607 5.87401 1.22851C7.16295 0.548005 8.55565 0.265415 10.1416 0.129883C11.6728 0.000119777 13.5676 0 15.9091 0H31.6738ZM25.2353 37.4872C27.2248 37.4874 28.8398 39.1021 28.8398 41.0917V61.9979H18.747V41.0917C18.747 39.102 20.3618 37.4872 22.3515 37.4872H25.2353ZM12.2558 23.0693C11.6824 23.0693 11.1321 23.2967 10.7265 23.7021C10.321 24.1076 10.0928 24.6579 10.0927 25.2314C10.0927 25.805 10.321 26.3551 10.7265 26.7607C11.1321 27.1662 11.6823 27.3945 12.2558 27.3945H18.0224C18.596 27.3945 19.1461 27.1663 19.5517 26.7607C19.9573 26.3551 20.1855 25.805 20.1855 25.2314C20.1854 24.6579 19.9572 24.1076 19.5517 23.7021C19.1461 23.2966 18.5959 23.0693 18.0224 23.0693H12.2558ZM29.5575 23.0693C28.9841 23.0693 28.4338 23.2967 28.0283 23.7021C27.6227 24.1076 27.3945 24.6579 27.3945 25.2314C27.3945 25.805 27.6227 26.3551 28.0283 26.7607C28.4338 27.1662 28.984 27.3945 29.5575 27.3945H35.3241C35.8977 27.3945 36.4478 27.1663 36.8534 26.7607C37.259 26.3551 37.4872 25.805 37.4872 25.2314C37.4871 24.6579 37.259 24.1076 36.8534 23.7021C36.4479 23.2966 35.8976 23.0693 35.3241 23.0693H29.5575ZM12.2558 11.5342C11.6823 11.5342 11.1321 11.7625 10.7265 12.1679C10.321 12.5735 10.0927 13.1236 10.0927 13.6972C10.0928 14.2708 10.321 14.821 10.7265 15.2265C11.1321 15.632 11.6824 15.8603 12.2558 15.8603H18.0224C18.5959 15.8603 19.1461 15.632 19.5517 15.2265C19.9573 14.821 20.1855 14.2708 20.1855 13.6972C20.1855 13.1236 19.9573 12.5735 19.5517 12.1679C19.1461 11.7624 18.596 11.5342 18.0224 11.5342H12.2558ZM29.5575 11.5342C28.9841 11.5342 28.4338 11.7625 28.0283 12.1679C27.6227 12.5735 27.3945 13.1236 27.3945 13.6972C27.3945 14.2708 27.6227 14.821 28.0283 15.2265C28.4338 15.6319 28.9841 15.8603 29.5575 15.8603H35.3241C35.8977 15.8603 36.4479 15.632 36.8534 15.2265C37.259 14.821 37.4872 14.2708 37.4872 13.6972C37.4872 13.1236 37.259 12.5735 36.8534 12.1679C36.4478 11.7624 35.8977 11.5342 35.3241 11.5342H29.5575Z"/>
</mask>
<path d="M31.6738 0C34.0123 0 35.9073 0.000167899 37.4413 0.132812C39.0214 0.265475 40.4171 0.548044 41.703 1.22851C43.7511 2.31512 45.4021 4.02327 46.4179 6.10741C47.058 7.41656 47.3291 8.82964 47.4559 10.4531C47.5799 12.0361 47.58 13.9912 47.58 16.4277V45.5731C47.58 48.0067 47.5799 49.9618 47.453 51.5419C47.3261 53.1682 47.058 54.5814 46.4149 55.8905C45.3999 57.9742 43.7501 59.6823 41.703 60.7694C40.4171 61.4499 39.0242 61.7325 37.4413 61.868C36.0173 61.967 34.5895 62.0104 33.162 61.9979V41.0917C33.162 38.9885 32.3259 36.9714 30.8388 35.4843C29.3516 33.9972 27.3345 33.162 25.2314 33.162H22.3476C20.2447 33.1621 18.2282 33.9974 16.7412 35.4843C15.254 36.9714 14.4179 38.9885 14.4179 41.0917V61.9979C12.7455 61.9921 11.3353 61.9689 10.1386 61.8651C8.55854 61.7324 7.16296 61.4499 5.87694 60.7694C3.82883 59.6828 2.17792 57.9746 1.16211 55.8905C0.521965 54.5814 0.253791 53.1682 0.124023 51.5448C3.47785e-05 49.9618 4.06058e-10 48.0067 0 45.5702V16.4277C1.48378e-10 13.9912 7.8302e-05 12.0361 0.126953 10.4531C0.253832 8.82963 0.521992 7.41657 1.16504 6.10741C2.17934 4.02412 3.82801 2.31607 5.87401 1.22851C7.16295 0.548005 8.55565 0.265415 10.1416 0.129883C11.6728 0.000119777 13.5676 0 15.9091 0H31.6738ZM25.2353 37.4872C27.2248 37.4874 28.8398 39.1021 28.8398 41.0917V61.9979H18.747V41.0917C18.747 39.102 20.3618 37.4872 22.3515 37.4872H25.2353ZM12.2558 23.0693C11.6824 23.0693 11.1321 23.2967 10.7265 23.7021C10.321 24.1076 10.0928 24.6579 10.0927 25.2314C10.0927 25.805 10.321 26.3551 10.7265 26.7607C11.1321 27.1662 11.6823 27.3945 12.2558 27.3945H18.0224C18.596 27.3945 19.1461 27.1663 19.5517 26.7607C19.9573 26.3551 20.1855 25.805 20.1855 25.2314C20.1854 24.6579 19.9572 24.1076 19.5517 23.7021C19.1461 23.2966 18.5959 23.0693 18.0224 23.0693H12.2558ZM29.5575 23.0693C28.9841 23.0693 28.4338 23.2967 28.0283 23.7021C27.6227 24.1076 27.3945 24.6579 27.3945 25.2314C27.3945 25.805 27.6227 26.3551 28.0283 26.7607C28.4338 27.1662 28.984 27.3945 29.5575 27.3945H35.3241C35.8977 27.3945 36.4478 27.1663 36.8534 26.7607C37.259 26.3551 37.4872 25.805 37.4872 25.2314C37.4871 24.6579 37.259 24.1076 36.8534 23.7021C36.4479 23.2966 35.8976 23.0693 35.3241 23.0693H29.5575ZM12.2558 11.5342C11.6823 11.5342 11.1321 11.7625 10.7265 12.1679C10.321 12.5735 10.0927 13.1236 10.0927 13.6972C10.0928 14.2708 10.321 14.821 10.7265 15.2265C11.1321 15.632 11.6824 15.8603 12.2558 15.8603H18.0224C18.5959 15.8603 19.1461 15.632 19.5517 15.2265C19.9573 14.821 20.1855 14.2708 20.1855 13.6972C20.1855 13.1236 19.9573 12.5735 19.5517 12.1679C19.1461 11.7624 18.596 11.5342 18.0224 11.5342H12.2558ZM29.5575 11.5342C28.9841 11.5342 28.4338 11.7625 28.0283 12.1679C27.6227 12.5735 27.3945 13.1236 27.3945 13.6972C27.3945 14.2708 27.6227 14.821 28.0283 15.2265C28.4338 15.6319 28.9841 15.8603 29.5575 15.8603H35.3241C35.8977 15.8603 36.4479 15.632 36.8534 15.2265C37.259 14.821 37.4872 14.2708 37.4872 13.6972C37.4872 13.1236 37.259 12.5735 36.8534 12.1679C36.4478 11.7624 35.8977 11.5342 35.3241 11.5342H29.5575Z" fill="#4E3117"/>
<path d="M31.6738 0V-1.21568V0ZM37.4413 0.132812L37.3366 1.34398L37.3396 1.34423L37.4413 0.132812ZM41.703 1.22851L42.2728 0.154609L42.2716 0.153989L41.703 1.22851ZM46.4179 6.10741L45.3251 6.64002L45.3257 6.64143L46.4179 6.10741ZM47.4559 10.4531L46.244 10.5478L46.244 10.548L47.4559 10.4531ZM47.58 16.4277H48.7957H47.58ZM47.58 45.5731H48.7957H47.58ZM47.453 51.5419L46.2412 51.4446L46.241 51.4473L47.453 51.5419ZM46.4149 55.8905L45.3238 55.3545L45.322 55.3581L46.4149 55.8905ZM41.703 60.7694L42.2716 61.8439L42.2732 61.8431L41.703 60.7694ZM37.4413 61.868L37.5256 63.0808L37.5353 63.0801L37.545 63.0793L37.4413 61.868ZM33.162 61.9979H31.9463V63.203L33.1514 63.2135L33.162 61.9979ZM33.162 41.0917H31.9463H33.162ZM30.8388 35.4843L31.6984 34.6247L31.6984 34.6247L30.8388 35.4843ZM22.3476 33.162V31.9463H22.3475L22.3476 33.162ZM16.7412 35.4843L15.8816 34.6246L15.8816 34.6247L16.7412 35.4843ZM14.4179 61.9979L14.4137 63.2136L15.6336 63.2178V61.9979H14.4179ZM10.1386 61.8651L10.2437 60.6539L10.2403 60.6537L10.1386 61.8651ZM5.87694 60.7694L5.3072 61.8433L5.30838 61.8439L5.87694 60.7694ZM1.16211 55.8905L2.2549 55.3579L2.25422 55.3565L1.16211 55.8905ZM0.124023 51.5448L-1.08795 51.6397L-1.08779 51.6417L0.124023 51.5448ZM0 45.5702H-1.21568H0ZM0 16.4277H-1.21568H0ZM0.126953 10.4531L1.33875 10.5502L1.33894 10.5478L0.126953 10.4531ZM1.16504 6.10741L2.2562 6.64338L2.25805 6.63957L1.16504 6.10741ZM5.87401 1.22851L5.30642 0.153457L5.30341 0.155058L5.87401 1.22851ZM10.1416 0.129883L10.0389 -1.08146L10.0381 -1.08139L10.1416 0.129883ZM25.2353 37.4872L25.2354 36.2715H25.2353V37.4872ZM28.8398 61.9979V63.2136H30.0555V61.9979H28.8398ZM18.747 61.9979H17.5313V63.2136H18.747V61.9979ZM10.7265 23.7021L9.86712 22.8423L9.86692 22.8425L10.7265 23.7021ZM10.0927 25.2314L8.87707 25.2312V25.2314H10.0927ZM10.7265 26.7607L9.86692 27.6203L9.86698 27.6204L10.7265 26.7607ZM19.5517 26.7607L20.4113 27.6203L20.4114 27.6203L19.5517 26.7607ZM20.1855 25.2314H21.4012V25.2312L20.1855 25.2314ZM19.5517 23.7021L20.4113 22.8425L20.4112 22.8424L19.5517 23.7021ZM28.0283 23.7021L27.1688 22.8423L27.1686 22.8425L28.0283 23.7021ZM27.3945 25.2314L26.1788 25.2312V25.2314H27.3945ZM28.0283 26.7607L27.1686 27.6203L27.1687 27.6204L28.0283 26.7607ZM36.8534 26.7607L37.713 27.6203L37.7131 27.6203L36.8534 26.7607ZM37.4872 25.2314H38.7029V25.2312L37.4872 25.2314ZM36.8534 23.7021L37.713 22.8425L37.7129 22.8424L36.8534 23.7021ZM12.2558 11.5342V10.3185V11.5342ZM10.7265 12.1679L9.86703 11.3082L9.86692 11.3083L10.7265 12.1679ZM10.0927 13.6972H8.87707L8.87707 13.6973L10.0927 13.6972ZM10.7265 15.2265L9.86692 16.0861L9.86706 16.0863L10.7265 15.2265ZM12.2558 15.8603V17.076V15.8603ZM18.0224 15.8603V17.076V15.8603ZM19.5517 15.2265L20.4113 16.0862L20.4113 16.0861L19.5517 15.2265ZM20.1855 13.6972L21.4012 13.6973V13.6972H20.1855ZM19.5517 12.1679L20.4113 11.3083L20.4113 11.3083L19.5517 12.1679ZM18.0224 11.5342V10.3185V11.5342ZM29.5575 11.5342V10.3185V11.5342ZM28.0283 12.1679L27.1688 11.3082L27.1686 11.3083L28.0283 12.1679ZM27.3945 13.6972H26.1788V13.6973L27.3945 13.6972ZM28.0283 15.2265L27.1686 16.0861L27.1688 16.0863L28.0283 15.2265ZM29.5575 15.8603V17.076V15.8603ZM35.3241 15.8603V17.076V15.8603ZM36.8534 15.2265L37.713 16.0862L37.713 16.0861L36.8534 15.2265ZM37.4872 13.6972L38.7029 13.6973V13.6972H37.4872ZM36.8534 12.1679L37.713 11.3083L37.713 11.3083L36.8534 12.1679ZM35.3241 11.5342V10.3185V11.5342ZM31.6738 0V1.21568C34.0317 1.21568 35.8666 1.21687 37.3366 1.34398L37.4413 0.132812L37.546 -1.07835C35.9479 -1.21653 33.993 -1.21568 31.6738 -1.21568V0ZM37.4413 0.132812L37.3396 1.34423C38.8413 1.47031 40.0532 1.73092 41.1344 2.30304L41.703 1.22851L42.2716 0.153989C40.7809 -0.634834 39.2015 -0.939365 37.543 -1.07861L37.4413 0.132812ZM41.703 1.22851L41.1333 2.30242C42.9542 3.26852 44.422 4.78719 45.3251 6.64002L46.4179 6.10741L47.5107 5.57479C46.3821 3.25934 44.548 1.36172 42.2728 0.15461L41.703 1.22851ZM46.4179 6.10741L45.3257 6.64143C45.8711 7.75663 46.1229 8.99862 46.244 10.5478L47.4559 10.4531L48.6679 10.3584C48.5352 8.66066 48.245 7.07649 47.51 5.57339L46.4179 6.10741ZM47.4559 10.4531L46.244 10.548C46.3634 12.0729 46.3643 13.9734 46.3643 16.4277H47.58H48.7957C48.7957 14.0089 48.7965 11.9993 48.6679 10.3582L47.4559 10.4531ZM47.58 16.4277H46.3643V45.5731H47.58H48.7957V16.4277H47.58ZM47.58 45.5731H46.3643C46.3643 48.0249 46.3633 49.924 46.2412 51.4446L47.453 51.5419L48.6648 51.6392C48.7965 49.9995 48.7957 47.9885 48.7957 45.5731H47.58ZM47.453 51.5419L46.241 51.4473C46.1198 53.0014 45.8705 54.2415 45.3238 55.3545L46.4149 55.8905L47.5061 56.4265C48.2455 54.9212 48.5325 53.335 48.665 51.6364L47.453 51.5419ZM46.4149 55.8905L45.322 55.3581C44.4196 57.2105 42.9528 58.7292 41.1328 59.6957L41.703 60.7694L42.2732 61.8431C44.5473 60.6354 46.3802 58.7378 47.5078 56.4229L46.4149 55.8905ZM41.703 60.7694L41.1344 59.6949C40.0528 60.2672 38.8433 60.5278 37.3376 60.6568L37.4413 61.868L37.545 63.0793C39.2052 62.9371 40.7813 62.6325 42.2716 61.8439L41.703 60.7694ZM37.4413 61.868L37.357 60.6553C35.9645 60.7521 34.5684 60.7945 33.1727 60.7823L33.162 61.9979L33.1514 63.2135C34.6105 63.2263 36.07 63.182 37.5256 63.0808L37.4413 61.868ZM33.162 61.9979H34.3777V41.0917H33.162H31.9463V61.9979H33.162ZM33.162 41.0917H34.3777C34.3777 38.6659 33.4134 36.3397 31.6984 34.6247L30.8388 35.4843L29.9792 36.3439C31.2385 37.6032 31.9463 39.3112 31.9463 41.0917H33.162ZM30.8388 35.4843L31.6984 34.6247C29.9832 32.9095 27.6568 31.9463 25.2314 31.9463V33.162V34.3777C27.0123 34.3777 28.7201 35.0849 29.9792 36.3439L30.8388 35.4843ZM25.2314 33.162V31.9463H22.3476V33.162V34.3777H25.2314V33.162ZM22.3476 33.162L22.3475 31.9463C19.9223 31.9465 17.5966 32.9097 15.8816 34.6246L16.7412 35.4843L17.6008 36.3439C18.8598 35.085 20.5671 34.3778 22.3477 34.3777L22.3476 33.162ZM16.7412 35.4843L15.8816 34.6247C14.1666 36.3397 13.2023 38.6659 13.2023 41.0917H14.4179H15.6336C15.6336 39.3112 16.3415 37.6032 17.6008 36.3439L16.7412 35.4843ZM14.4179 41.0917H13.2023V61.9979H14.4179H15.6336V41.0917H14.4179ZM14.4179 61.9979L14.4221 60.7822C12.7488 60.7765 11.3844 60.7529 10.2437 60.654L10.1386 61.8651L10.0336 63.0762C11.2862 63.1849 12.7422 63.2078 14.4137 63.2136L14.4179 61.9979ZM10.1386 61.8651L10.2403 60.6537C8.73866 60.5276 7.52677 60.267 6.4455 59.6949L5.87694 60.7694L5.30838 61.8439C6.79914 62.6327 8.37841 62.9373 10.037 63.0765L10.1386 61.8651ZM5.87694 60.7694L6.44667 59.6955C4.62574 58.7294 3.15799 57.2107 2.25489 55.3579L1.16211 55.8905L0.0693189 56.4231C1.19786 58.7385 3.03192 60.6362 5.3072 61.8433L5.87694 60.7694ZM1.16211 55.8905L2.25422 55.3565C1.70934 54.2422 1.45995 53.0006 1.33584 51.4479L0.124023 51.5448L-1.08779 51.6417C-0.952372 53.3358 -0.665409 54.9206 0.0699979 56.4245L1.16211 55.8905ZM0.124023 51.5448L1.33599 51.4499C1.21656 49.925 1.21568 48.0244 1.21568 45.5702H0H-1.21568C-1.21568 47.9889 -1.21649 49.9986 -1.08795 51.6397L0.124023 51.5448ZM0 45.5702H1.21568V16.4277H0H-1.21568V45.5702H0ZM0 16.4277H1.21568C1.21568 13.9731 1.21664 12.0738 1.33875 10.5502L0.126953 10.4531L-1.08485 10.356C-1.21648 11.9985 -1.21568 14.0093 -1.21568 16.4277H0ZM0.126953 10.4531L1.33894 10.5478C1.46017 8.9966 1.70945 7.75648 2.2562 6.64337L1.16504 6.10741L0.0738777 5.57144C-0.665464 7.07665 -0.952509 8.66266 -1.08503 10.3584L0.126953 10.4531ZM1.16504 6.10741L2.25805 6.63957C3.15981 4.78745 4.62556 3.26889 6.44461 2.30197L5.87401 1.22851L5.30341 0.155058C3.03046 1.36325 1.19887 3.26079 0.0720195 5.57524L1.16504 6.10741ZM5.87401 1.22851L6.44159 2.30356C7.52671 1.73067 8.73671 1.47006 10.2451 1.34115L10.1416 0.129883L10.0381 -1.08139C8.37458 -0.939226 6.79919 -0.634658 5.30643 0.153461L5.87401 1.22851ZM10.1416 0.129883L10.2442 1.34122C11.7126 1.21678 13.5486 1.21568 15.9091 1.21568V0V-1.21568C13.5867 -1.21568 11.6329 -1.21654 10.0389 -1.08146L10.1416 0.129883ZM15.9091 0V1.21568H31.6738V0V-1.21568H15.9091V0ZM25.2353 37.4872L25.2352 38.7029C26.5535 38.703 27.6241 39.7737 27.6241 41.0917H28.8398H30.0555C30.0555 38.4306 27.8961 36.2718 25.2354 36.2715L25.2353 37.4872ZM28.8398 41.0917H27.6241V61.9979H28.8398H30.0555V41.0917H28.8398ZM28.8398 61.9979V60.7822H18.747V61.9979V63.2136H28.8398V61.9979ZM18.747 61.9979H19.9627V41.0917H18.747H17.5313V61.9979H18.747ZM18.747 41.0917H19.9627C19.9627 39.7734 21.0332 38.7029 22.3515 38.7029V37.4872V36.2715C19.6904 36.2715 17.5313 38.4306 17.5313 41.0917H18.747ZM22.3515 37.4872V38.7029H25.2353V37.4872V36.2715H22.3515V37.4872ZM12.2558 23.0693V21.8536C11.3607 21.8536 10.5011 22.2086 9.86712 22.8423L10.7265 23.7021L11.586 24.5619C11.7631 24.3848 12.0041 24.285 12.2558 24.285V23.0693ZM10.7265 23.7021L9.86692 22.8425C9.23367 23.4757 8.87717 24.3351 8.87707 25.2312L10.0927 25.2314L11.3084 25.2315C11.3085 24.9807 11.4083 24.7395 11.5862 24.5617L10.7265 23.7021ZM10.0927 25.2314H8.87707C8.87707 26.1279 9.23369 26.9871 9.86692 27.6203L10.7265 26.7607L11.5862 25.9011C11.4082 25.7231 11.3084 25.4821 11.3084 25.2314H10.0927ZM10.7265 26.7607L9.86698 27.6204C10.5001 28.2534 11.3593 28.6102 12.2558 28.6102V27.3945V26.1788C12.0053 26.1788 11.7641 26.079 11.5861 25.901L10.7265 26.7607ZM12.2558 27.3945V28.6102H18.0224V27.3945V26.1788H12.2558V27.3945ZM18.0224 27.3945V28.6102C18.9189 28.6102 19.7781 28.2535 20.4113 27.6203L19.5517 26.7607L18.6921 25.9011C18.5142 26.079 18.2731 26.1788 18.0224 26.1788V27.3945ZM19.5517 26.7607L20.4114 27.6203C21.0445 26.9871 21.4012 26.1279 21.4012 25.2314H20.1855H18.9698C18.9698 25.482 18.87 25.7231 18.6921 25.9011L19.5517 26.7607ZM20.1855 25.2314L21.4012 25.2312C21.4011 24.3351 21.0446 23.4757 20.4113 22.8425L19.5517 23.7021L18.6921 24.5617C18.8699 24.7395 18.9698 24.9807 18.9698 25.2315L20.1855 25.2314ZM19.5517 23.7021L20.4112 22.8424C19.7771 22.2085 18.9175 21.8536 18.0224 21.8536V23.0693V24.285C18.2743 24.285 18.5151 24.3848 18.6922 24.5618L19.5517 23.7021ZM18.0224 23.0693V21.8536H12.2558V23.0693V24.285H18.0224V23.0693ZM29.5575 23.0693V21.8536C28.6624 21.8536 27.8028 22.2086 27.1688 22.8423L28.0283 23.7021L28.8877 24.5619C29.0648 24.3849 29.3058 24.285 29.5575 24.285V23.0693ZM28.0283 23.7021L27.1686 22.8425C26.5354 23.4757 26.1789 24.3351 26.1788 25.2312L27.3945 25.2314L28.6102 25.2315C28.6102 24.9807 28.7101 24.7395 28.8879 24.5617L28.0283 23.7021ZM27.3945 25.2314H26.1788C26.1788 26.1279 26.5354 26.9871 27.1686 27.6203L28.0283 26.7607L28.8879 25.9011C28.7099 25.7231 28.6102 25.4821 28.6102 25.2314H27.3945ZM28.0283 26.7607L27.1687 27.6204C27.8018 28.2534 28.661 28.6102 29.5575 28.6102V27.3945V26.1788C29.307 26.1788 29.0658 26.079 28.8878 25.901L28.0283 26.7607ZM29.5575 27.3945V28.6102H35.3241V27.3945V26.1788H29.5575V27.3945ZM35.3241 27.3945V28.6102C36.2206 28.6102 37.0798 28.2535 37.713 27.6203L36.8534 26.7607L35.9938 25.9011C35.8159 26.079 35.5748 26.1788 35.3241 26.1788V27.3945ZM36.8534 26.7607L37.7131 27.6203C38.3462 26.9871 38.7029 26.1279 38.7029 25.2314H37.4872H36.2715C36.2715 25.482 36.1717 25.7231 35.9938 25.9011L36.8534 26.7607ZM37.4872 25.2314L38.7029 25.2312C38.7028 24.3351 38.3463 23.4757 37.713 22.8425L36.8534 23.7021L35.9938 24.5617C36.1716 24.7395 36.2715 24.9807 36.2715 25.2315L37.4872 25.2314ZM36.8534 23.7021L37.7129 22.8424C37.0789 22.2085 36.2192 21.8536 35.3241 21.8536V23.0693V24.285C35.576 24.285 35.8169 24.3848 35.9939 24.5618L36.8534 23.7021ZM35.3241 23.0693V21.8536H29.5575V23.0693V24.285H35.3241V23.0693ZM12.2558 11.5342V10.3185C11.3593 10.3185 10.5001 10.6753 9.86703 11.3082L10.7265 12.1679L11.586 13.0277C11.7641 12.8497 12.0054 12.7498 12.2558 12.7498V11.5342ZM10.7265 12.1679L9.86692 11.3083C9.23369 11.9416 8.87707 12.8007 8.87707 13.6972H10.0927H11.3084C11.3084 13.4465 11.4082 13.2055 11.5862 13.0276L10.7265 12.1679ZM10.0927 13.6972L8.87707 13.6973C8.87709 14.5937 9.23368 15.4529 9.86692 16.0861L10.7265 15.2265L11.5862 14.3669C11.4082 14.189 11.3084 13.9479 11.3084 13.6972L10.0927 13.6972ZM10.7265 15.2265L9.86706 16.0863C10.5001 16.7191 11.3593 17.076 12.2558 17.076V15.8603V14.6446C12.0054 14.6446 11.7641 14.5448 11.586 14.3668L10.7265 15.2265ZM12.2558 15.8603V17.076H18.0224V15.8603V14.6446H12.2558V15.8603ZM18.0224 15.8603V17.076C18.9189 17.076 19.7781 16.7193 20.4113 16.0862L19.5517 15.2265L18.6922 14.3668C18.5142 14.5448 18.273 14.6446 18.0224 14.6446V15.8603ZM19.5517 15.2265L20.4113 16.0861C21.0446 15.4529 21.4012 14.5937 21.4012 13.6973L20.1855 13.6972L18.9698 13.6972C18.9698 13.9479 18.87 14.189 18.6921 14.3669L19.5517 15.2265ZM20.1855 13.6972H21.4012C21.4012 12.8007 21.0446 11.9416 20.4113 11.3083L19.5517 12.1679L18.6921 13.0276C18.87 13.2055 18.9698 13.4465 18.9698 13.6972H20.1855ZM19.5517 12.1679L20.4113 11.3083C19.7781 10.6752 18.9189 10.3185 18.0224 10.3185V11.5342V12.7498C18.273 12.7498 18.5142 12.8496 18.6921 13.0276L19.5517 12.1679ZM18.0224 11.5342V10.3185H12.2558V11.5342V12.7498H18.0224V11.5342ZM29.5575 11.5342V10.3185C28.661 10.3185 27.8018 10.6753 27.1688 11.3082L28.0283 12.1679L28.8878 13.0277C29.0658 12.8497 29.3071 12.7498 29.5575 12.7498V11.5342ZM28.0283 12.1679L27.1686 11.3083C26.5354 11.9416 26.1788 12.8007 26.1788 13.6972H27.3945H28.6102C28.6102 13.4465 28.7099 13.2055 28.8879 13.0276L28.0283 12.1679ZM27.3945 13.6972L26.1788 13.6973C26.1788 14.5937 26.5354 15.4529 27.1686 16.0861L28.0283 15.2265L28.8879 14.3669C28.71 14.189 28.6102 13.9479 28.6102 13.6972L27.3945 13.6972ZM28.0283 15.2265L27.1688 16.0863C27.8018 16.7191 28.661 17.076 29.5575 17.076V15.8603V14.6446C29.3071 14.6446 29.0658 14.5448 28.8877 14.3668L28.0283 15.2265ZM29.5575 15.8603V17.076H35.3241V15.8603V14.6446H29.5575V15.8603ZM35.3241 15.8603V17.076C36.2206 17.076 37.0798 16.7193 37.713 16.0862L36.8534 15.2265L35.9939 14.3668C35.8159 14.5448 35.5747 14.6446 35.3241 14.6446V15.8603ZM36.8534 15.2265L37.713 16.0861C38.3463 15.4529 38.7029 14.5937 38.7029 13.6973L37.4872 13.6972L36.2715 13.6972C36.2715 13.9479 36.1717 14.189 35.9938 14.3669L36.8534 15.2265ZM37.4872 13.6972H38.7029C38.7029 12.8007 38.3463 11.9416 37.713 11.3083L36.8534 12.1679L35.9938 13.0276C36.1718 13.2055 36.2715 13.4465 36.2715 13.6972H37.4872ZM36.8534 12.1679L37.713 11.3083C37.0798 10.6751 36.2206 10.3185 35.3241 10.3185V11.5342V12.7498C35.5748 12.7498 35.8159 12.8496 35.9938 13.0276L36.8534 12.1679ZM35.3241 11.5342V10.3185H29.5575V11.5342V12.7498H35.3241V11.5342Z" fill="url(#paint0_linear_1143_554)" mask="url(#path-1-inside-1_1143_554)"/>
<defs>
<linearGradient id="paint0_linear_1143_554" x1="23.8769" y1="62" x2="20.2732" y2="0.200003" gradientUnits="userSpaceOnUse">
<stop stop-color="#FEE69B"/>
<stop offset="1" stop-color="#FEE69B" stop-opacity="0"/>
</linearGradient>
</defs>
</svg>
