<svg width="20" height="20" viewBox="0 0 20 20" fill="none" xmlns="http://www.w3.org/2000/svg">
<path d="M4.43033 16.1987C4.93727 15.0043 6.12085 14.1667 7.50008 14.1667H12.5001C13.8793 14.1667 15.0629 15.0043 15.5698 16.1987M13.3334 7.91667C13.3334 9.75762 11.841 11.25 10.0001 11.25C8.15913 11.25 6.66675 9.75762 6.66675 7.91667C6.66675 6.07572 8.15913 4.58334 10.0001 4.58334C11.841 4.58334 13.3334 6.07572 13.3334 7.91667ZM18.3334 10C18.3334 14.6024 14.6025 18.3333 10.0001 18.3333C5.39771 18.3333 1.66675 14.6024 1.66675 10C1.66675 5.39763 5.39771 1.66667 10.0001 1.66667C14.6025 1.66667 18.3334 5.39763 18.3334 10Z" stroke="#7E6C52" stroke-width="1.2" stroke-linecap="round" stroke-linejoin="round"/>
</svg>
